<svg width="105" height="93" viewBox="0 0 105 93" fill="none" xmlns="http://www.w3.org/2000/svg">
<path d="M81.2897 72.7066C84.4583 70.3548 88.5635 70.4718 90.606 71.3806C92.1734 72.0781 93.4807 73.7885 93.4087 76.3492C93.356 78.2254 92.5299 80.7274 87.9155 81.61C84.4533 82.2722 81.8644 81.6447 79.6701 80.0725C76.3949 77.726 77.0048 73.0163 81.9161 70.5386" stroke="#0A0808" stroke-width="2.5" stroke-linecap="round"/>
<ellipse cx="51.2843" cy="37.7059" rx="45.0093" ry="31.497" transform="rotate(-6.49741 51.2843 37.7059)" fill="#F9FDFF"/>
<path d="M15.7305 28.1367V27.3242H17.2305C17.5924 27.3242 17.8737 27.2318 18.0742 27.0469C18.2747 26.8594 18.375 26.5964 18.375 26.2578V26.25C18.375 25.9089 18.2747 25.6458 18.0742 25.4609C17.8737 25.276 17.5924 25.1836 17.2305 25.1836H15.7305V24.3633H17.4766C17.8594 24.3633 18.194 24.4414 18.4805 24.5977C18.7669 24.7539 18.9909 24.974 19.1523 25.2578C19.3138 25.5391 19.3945 25.8685 19.3945 26.2461V26.2539C19.3945 26.6289 19.3138 26.9583 19.1523 27.2422C18.9909 27.5234 18.7669 27.7435 18.4805 27.9023C18.194 28.0586 17.8594 28.1367 17.4766 28.1367H15.7305ZM15.2266 30V24.3633H16.2344V30H15.2266ZM20.4062 30V25.7305H21.3789V26.3867H21.4453C21.5182 26.1576 21.6484 25.9792 21.8359 25.8516C22.026 25.724 22.2617 25.6602 22.543 25.6602C22.6159 25.6602 22.6875 25.6654 22.7578 25.6758C22.8307 25.6836 22.8906 25.694 22.9375 25.707V26.5781C22.8594 26.5599 22.7799 26.5469 22.6992 26.5391C22.6211 26.5286 22.5391 26.5234 22.4531 26.5234C22.237 26.5234 22.0482 26.5638 21.8867 26.6445C21.7253 26.7253 21.6003 26.8411 21.5117 26.9922C21.4232 27.1406 21.3789 27.3164 21.3789 27.5195V30H20.4062ZM25.4531 30.0859C25.0286 30.0859 24.6641 29.9961 24.3594 29.8164C24.0573 29.6367 23.8242 29.3815 23.6602 29.0508C23.4961 28.7201 23.4141 28.3281 23.4141 27.875V27.8711C23.4141 27.4232 23.4948 27.0326 23.6562 26.6992C23.8203 26.3659 24.0521 26.1081 24.3516 25.9258C24.651 25.7409 25.0026 25.6484 25.4062 25.6484C25.8125 25.6484 26.1615 25.7383 26.4531 25.918C26.7474 26.0951 26.974 26.3438 27.1328 26.6641C27.2917 26.9844 27.3711 27.3594 27.3711 27.7891V28.1094H23.9023V27.457H26.8945L26.4336 28.0664V27.6797C26.4336 27.3958 26.3906 27.1602 26.3047 26.9727C26.2188 26.7852 26.099 26.6445 25.9453 26.5508C25.7943 26.457 25.6185 26.4102 25.418 26.4102C25.2174 26.4102 25.0391 26.4596 24.8828 26.5586C24.7292 26.6549 24.6068 26.7982 24.5156 26.9883C24.4271 27.1758 24.3828 27.4062 24.3828 27.6797V28.0703C24.3828 28.3333 24.4271 28.5586 24.5156 28.7461C24.6042 28.931 24.7292 29.0742 24.8906 29.1758C25.0547 29.2747 25.2487 29.3242 25.4727 29.3242C25.6471 29.3242 25.7969 29.2995 25.9219 29.25C26.0495 29.1979 26.1523 29.1367 26.2305 29.0664C26.3086 28.9935 26.3633 28.9245 26.3945 28.8594L26.4062 28.832H27.3281L27.3203 28.8672C27.2865 29.0052 27.224 29.1458 27.1328 29.2891C27.0443 29.4297 26.9232 29.5612 26.7695 29.6836C26.6185 29.8034 26.4336 29.901 26.2148 29.9766C25.9961 30.0495 25.7422 30.0859 25.4531 30.0859ZM29.957 30.0859C29.5951 30.0859 29.2826 30.0352 29.0195 29.9336C28.7591 29.8294 28.5534 29.6862 28.4023 29.5039C28.2513 29.319 28.1615 29.1055 28.1328 28.8633V28.8555H29.0977L29.1016 28.8633C29.1536 29.0117 29.2513 29.1328 29.3945 29.2266C29.5378 29.3203 29.7305 29.3672 29.9727 29.3672C30.1341 29.3672 30.276 29.3451 30.3984 29.3008C30.5208 29.2539 30.6172 29.1901 30.6875 29.1094C30.7578 29.0286 30.793 28.9349 30.793 28.8281V28.8203C30.793 28.6953 30.7422 28.5911 30.6406 28.5078C30.5391 28.4219 30.3711 28.3529 30.1367 28.3008L29.4453 28.1445C29.1745 28.0846 28.9505 28.0013 28.7734 27.8945C28.5964 27.7878 28.4635 27.6562 28.375 27.5C28.2891 27.3438 28.2461 27.1615 28.2461 26.9531V26.9492C28.2461 26.6914 28.3177 26.4648 28.4609 26.2695C28.6068 26.0742 28.8086 25.9219 29.0664 25.8125C29.3242 25.7031 29.6211 25.6484 29.957 25.6484C30.3034 25.6484 30.6016 25.7005 30.8516 25.8047C31.1016 25.9089 31.2969 26.0521 31.4375 26.2344C31.5781 26.4167 31.6589 26.6237 31.6797 26.8555V26.8633H30.7656L30.7617 26.8516C30.7253 26.7161 30.638 26.6016 30.5 26.5078C30.3646 26.4115 30.1823 26.3633 29.9531 26.3633C29.8099 26.3633 29.681 26.3854 29.5664 26.4297C29.4544 26.474 29.3659 26.5365 29.3008 26.6172C29.2383 26.6953 29.207 26.7878 29.207 26.8945V26.8984C29.207 26.9818 29.2279 27.0547 29.2695 27.1172C29.3138 27.1797 29.3828 27.2344 29.4766 27.2812C29.5703 27.3281 29.694 27.3698 29.8477 27.4062L30.5391 27.5586C30.9583 27.6523 31.2682 27.7917 31.4688 27.9766C31.6693 28.1615 31.7695 28.4102 31.7695 28.7227V28.7305C31.7695 29.0013 31.6914 29.2383 31.5352 29.4414C31.3789 29.6445 31.1641 29.8034 30.8906 29.918C30.6172 30.0299 30.306 30.0859 29.957 30.0859ZM34.2852 30.0859C33.9232 30.0859 33.6107 30.0352 33.3477 29.9336C33.0872 29.8294 32.8815 29.6862 32.7305 29.5039C32.5794 29.319 32.4896 29.1055 32.4609 28.8633V28.8555H33.4258L33.4297 28.8633C33.4818 29.0117 33.5794 29.1328 33.7227 29.2266C33.8659 29.3203 34.0586 29.3672 34.3008 29.3672C34.4622 29.3672 34.6042 29.3451 34.7266 29.3008C34.849 29.2539 34.9453 29.1901 35.0156 29.1094C35.0859 29.0286 35.1211 28.9349 35.1211 28.8281V28.8203C35.1211 28.6953 35.0703 28.5911 34.9688 28.5078C34.8672 28.4219 34.6992 28.3529 34.4648 28.3008L33.7734 28.1445C33.5026 28.0846 33.2786 28.0013 33.1016 27.8945C32.9245 27.7878 32.7917 27.6562 32.7031 27.5C32.6172 27.3438 32.5742 27.1615 32.5742 26.9531V26.9492C32.5742 26.6914 32.6458 26.4648 32.7891 26.2695C32.9349 26.0742 33.1367 25.9219 33.3945 25.8125C33.6523 25.7031 33.9492 25.6484 34.2852 25.6484C34.6315 25.6484 34.9297 25.7005 35.1797 25.8047C35.4297 25.9089 35.625 26.0521 35.7656 26.2344C35.9062 26.4167 35.987 26.6237 36.0078 26.8555V26.8633H35.0938L35.0898 26.8516C35.0534 26.7161 34.9661 26.6016 34.8281 26.5078C34.6927 26.4115 34.5104 26.3633 34.2812 26.3633C34.138 26.3633 34.0091 26.3854 33.8945 26.4297C33.7826 26.474 33.694 26.5365 33.6289 26.6172C33.5664 26.6953 33.5352 26.7878 33.5352 26.8945V26.8984C33.5352 26.9818 33.556 27.0547 33.5977 27.1172C33.6419 27.1797 33.7109 27.2344 33.8047 27.2812C33.8984 27.3281 34.0221 27.3698 34.1758 27.4062L34.8672 27.5586C35.2865 27.6523 35.5964 27.7917 35.7969 27.9766C35.9974 28.1615 36.0977 28.4102 36.0977 28.7227V28.7305C36.0977 29.0013 36.0195 29.2383 35.8633 29.4414C35.707 29.6445 35.4922 29.8034 35.2188 29.918C34.9453 30.0299 34.6341 30.0859 34.2852 30.0859ZM37.8008 30.0742C37.6237 30.0742 37.4753 30.0156 37.3555 29.8984C37.2383 29.7786 37.1797 29.6328 37.1797 29.4609C37.1797 29.2865 37.2383 29.1406 37.3555 29.0234C37.4753 28.9036 37.6237 28.8438 37.8008 28.8438C37.9805 28.8438 38.1289 28.9036 38.2461 29.0234C38.3633 29.1406 38.4219 29.2865 38.4219 29.4609C38.4219 29.6328 38.3633 29.7786 38.2461 29.8984C38.1289 30.0156 37.9805 30.0742 37.8008 30.0742ZM41.9453 30V24.3633H42.9531V26.707H45.6953V24.3633H46.6992V30H45.6953V27.5547H42.9531V30H41.9453ZM49.8359 30.0859C49.4115 30.0859 49.0456 29.9974 48.7383 29.8203C48.431 29.6406 48.194 29.3854 48.0273 29.0547C47.8633 28.724 47.7812 28.3281 47.7812 27.8672V27.8594C47.7812 27.4036 47.8646 27.0104 48.0312 26.6797C48.1979 26.3464 48.4336 26.0911 48.7383 25.9141C49.0456 25.737 49.4115 25.6484 49.8359 25.6484C50.2604 25.6484 50.625 25.737 50.9297 25.9141C51.237 26.0911 51.474 26.3451 51.6406 26.6758C51.8073 27.0065 51.8906 27.401 51.8906 27.8594V27.8672C51.8906 28.3281 51.8073 28.724 51.6406 29.0547C51.4766 29.3854 51.2409 29.6406 50.9336 29.8203C50.6289 29.9974 50.263 30.0859 49.8359 30.0859ZM49.8359 29.2969C50.0599 29.2969 50.25 29.2409 50.4062 29.1289C50.5651 29.0143 50.6862 28.8516 50.7695 28.6406C50.8529 28.4271 50.8945 28.1706 50.8945 27.8711V27.8633C50.8945 27.5612 50.8529 27.3047 50.7695 27.0938C50.6862 26.8802 50.5651 26.7174 50.4062 26.6055C50.25 26.4909 50.0599 26.4336 49.8359 26.4336C49.612 26.4336 49.4206 26.4909 49.2617 26.6055C49.1029 26.7174 48.9818 26.8802 48.8984 27.0938C48.8151 27.3047 48.7734 27.5612 48.7734 27.8633V27.8711C48.7734 28.1706 48.8151 28.4271 48.8984 28.6406C48.9818 28.8542 49.1016 29.0169 49.2578 29.1289C49.4167 29.2409 49.6094 29.2969 49.8359 29.2969ZM52.9062 30V24.0781H53.8789V30H52.9062ZM56.6406 30.0703C56.2865 30.0703 55.9779 29.9818 55.7148 29.8047C55.4518 29.625 55.2487 29.3698 55.1055 29.0391C54.9622 28.7083 54.8906 28.319 54.8906 27.8711V27.8633C54.8906 27.4102 54.9609 27.0195 55.1016 26.6914C55.2448 26.3607 55.4466 26.1068 55.707 25.9297C55.9701 25.75 56.2812 25.6602 56.6406 25.6602C56.8359 25.6602 57.0182 25.6914 57.1875 25.7539C57.3568 25.8138 57.5052 25.8997 57.6328 26.0117C57.763 26.1237 57.8646 26.2565 57.9375 26.4102H58.0078V24.0781H58.9766V30H58.0078V29.332H57.9375C57.8594 29.4857 57.7565 29.6185 57.6289 29.7305C57.5039 29.8398 57.3581 29.9245 57.1914 29.9844C57.0247 30.0417 56.8411 30.0703 56.6406 30.0703ZM56.9453 29.25C57.1667 29.25 57.3568 29.1953 57.5156 29.0859C57.6771 28.974 57.8008 28.8151 57.8867 28.6094C57.9753 28.401 58.0195 28.1549 58.0195 27.8711V27.8633C58.0195 27.5768 57.9753 27.3307 57.8867 27.125C57.8008 26.9193 57.6771 26.7604 57.5156 26.6484C57.3568 26.5365 57.1667 26.4805 56.9453 26.4805C56.7266 26.4805 56.5365 26.5365 56.375 26.6484C56.2161 26.7578 56.0938 26.9167 56.0078 27.125C55.9219 27.3307 55.8789 27.5768 55.8789 27.8633V27.8711C55.8789 28.1576 55.9219 28.4036 56.0078 28.6094C56.0938 28.8151 56.2161 28.974 56.375 29.0859C56.5339 29.1953 56.724 29.25 56.9453 29.25ZM60.9258 30.0742C60.7487 30.0742 60.6003 30.0156 60.4805 29.8984C60.3633 29.7786 60.3047 29.6328 60.3047 29.4609C60.3047 29.2865 60.3633 29.1406 60.4805 29.0234C60.6003 28.9036 60.7487 28.8438 60.9258 28.8438C61.1055 28.8438 61.2539 28.9036 61.3711 29.0234C61.4883 29.1406 61.5469 29.2865 61.5469 29.4609C61.5469 29.6328 61.4883 29.7786 61.3711 29.8984C61.2539 30.0156 61.1055 30.0742 60.9258 30.0742ZM67.4219 30.1406C66.888 30.1406 66.4271 30.0208 66.0391 29.7812C65.6536 29.5417 65.3555 29.2018 65.1445 28.7617C64.9362 28.319 64.832 27.7943 64.832 27.1875V27.1797C64.832 26.5703 64.9362 26.0456 65.1445 25.6055C65.3555 25.1628 65.6536 24.8216 66.0391 24.582C66.4245 24.3424 66.8841 24.2227 67.418 24.2227C67.8451 24.2227 68.2305 24.3073 68.5742 24.4766C68.918 24.6432 69.1979 24.875 69.4141 25.1719C69.6302 25.4661 69.7604 25.8047 69.8047 26.1875L69.8008 26.2188H68.8164L68.8125 26.1992C68.7656 25.9779 68.6771 25.7852 68.5469 25.6211C68.4167 25.4544 68.2552 25.3255 68.0625 25.2344C67.8698 25.1406 67.6549 25.0938 67.418 25.0938C67.1003 25.0938 66.8242 25.1784 66.5898 25.3477C66.3555 25.5169 66.1745 25.7578 66.0469 26.0703C65.9219 26.3802 65.8594 26.7487 65.8594 27.1758V27.1836C65.8594 27.6107 65.9219 27.9805 66.0469 28.293C66.1745 28.6055 66.3555 28.8464 66.5898 29.0156C66.8242 29.1849 67.1016 29.2695 67.4219 29.2695C67.6615 29.2695 67.8763 29.2279 68.0664 29.1445C68.2591 29.0612 68.4193 28.944 68.5469 28.793C68.6771 28.6393 68.7656 28.4596 68.8125 28.2539L68.8203 28.2305H69.8047V28.2617C69.7552 28.6367 69.6237 28.9648 69.4102 29.2461C69.1966 29.5273 68.9206 29.7474 68.582 29.9062C68.2435 30.0625 67.8568 30.1406 67.4219 30.1406ZM70.8672 30V24.0781H71.8398V30H70.8672ZM74.9062 30.0859C74.4818 30.0859 74.1159 29.9974 73.8086 29.8203C73.5013 29.6406 73.2643 29.3854 73.0977 29.0547C72.9336 28.724 72.8516 28.3281 72.8516 27.8672V27.8594C72.8516 27.4036 72.9349 27.0104 73.1016 26.6797C73.2682 26.3464 73.5039 26.0911 73.8086 25.9141C74.1159 25.737 74.4818 25.6484 74.9062 25.6484C75.3307 25.6484 75.6953 25.737 76 25.9141C76.3073 26.0911 76.5443 26.3451 76.7109 26.6758C76.8776 27.0065 76.9609 27.401 76.9609 27.8594V27.8672C76.9609 28.3281 76.8776 28.724 76.7109 29.0547C76.5469 29.3854 76.3112 29.6406 76.0039 29.8203C75.6992 29.9974 75.3333 30.0859 74.9062 30.0859ZM74.9062 29.2969C75.1302 29.2969 75.3203 29.2409 75.4766 29.1289C75.6354 29.0143 75.7565 28.8516 75.8398 28.6406C75.9232 28.4271 75.9648 28.1706 75.9648 27.8711V27.8633C75.9648 27.5612 75.9232 27.3047 75.8398 27.0938C75.7565 26.8802 75.6354 26.7174 75.4766 26.6055C75.3203 26.4909 75.1302 26.4336 74.9062 26.4336C74.6823 26.4336 74.4909 26.4909 74.332 26.6055C74.1732 26.7174 74.0521 26.8802 73.9688 27.0938C73.8854 27.3047 73.8438 27.5612 73.8438 27.8633V27.8711C73.8438 28.1706 73.8854 28.4271 73.9688 28.6406C74.0521 28.8542 74.1719 29.0169 74.3281 29.1289C74.487 29.2409 74.6797 29.2969 74.9062 29.2969ZM79.5508 30.0859C79.1888 30.0859 78.8763 30.0352 78.6133 29.9336C78.3529 29.8294 78.1471 29.6862 77.9961 29.5039C77.8451 29.319 77.7552 29.1055 77.7266 28.8633V28.8555H78.6914L78.6953 28.8633C78.7474 29.0117 78.8451 29.1328 78.9883 29.2266C79.1315 29.3203 79.3242 29.3672 79.5664 29.3672C79.7279 29.3672 79.8698 29.3451 79.9922 29.3008C80.1146 29.2539 80.2109 29.1901 80.2812 29.1094C80.3516 29.0286 80.3867 28.9349 80.3867 28.8281V28.8203C80.3867 28.6953 80.3359 28.5911 80.2344 28.5078C80.1328 28.4219 79.9648 28.3529 79.7305 28.3008L79.0391 28.1445C78.7682 28.0846 78.5443 28.0013 78.3672 27.8945C78.1901 27.7878 78.0573 27.6562 77.9688 27.5C77.8828 27.3438 77.8398 27.1615 77.8398 26.9531V26.9492C77.8398 26.6914 77.9115 26.4648 78.0547 26.2695C78.2005 26.0742 78.4023 25.9219 78.6602 25.8125C78.918 25.7031 79.2148 25.6484 79.5508 25.6484C79.8971 25.6484 80.1953 25.7005 80.4453 25.8047C80.6953 25.9089 80.8906 26.0521 81.0312 26.2344C81.1719 26.4167 81.2526 26.6237 81.2734 26.8555V26.8633H80.3594L80.3555 26.8516C80.319 26.7161 80.2318 26.6016 80.0938 26.5078C79.9583 26.4115 79.776 26.3633 79.5469 26.3633C79.4036 26.3633 79.2747 26.3854 79.1602 26.4297C79.0482 26.474 78.9596 26.5365 78.8945 26.6172C78.832 26.6953 78.8008 26.7878 78.8008 26.8945V26.8984C78.8008 26.9818 78.8216 27.0547 78.8633 27.1172C78.9076 27.1797 78.9766 27.2344 79.0703 27.2812C79.1641 27.3281 79.2878 27.3698 79.4414 27.4062L80.1328 27.5586C80.5521 27.6523 80.862 27.7917 81.0625 27.9766C81.263 28.1615 81.3633 28.4102 81.3633 28.7227V28.7305C81.3633 29.0013 81.2852 29.2383 81.1289 29.4414C80.9727 29.6445 80.7578 29.8034 80.4844 29.918C80.2109 30.0299 79.8997 30.0859 79.5508 30.0859ZM84.1719 30.0859C83.7474 30.0859 83.3828 29.9961 83.0781 29.8164C82.776 29.6367 82.543 29.3815 82.3789 29.0508C82.2148 28.7201 82.1328 28.3281 82.1328 27.875V27.8711C82.1328 27.4232 82.2135 27.0326 82.375 26.6992C82.5391 26.3659 82.7708 26.1081 83.0703 25.9258C83.3698 25.7409 83.7214 25.6484 84.125 25.6484C84.5312 25.6484 84.8802 25.7383 85.1719 25.918C85.4661 26.0951 85.6927 26.3438 85.8516 26.6641C86.0104 26.9844 86.0898 27.3594 86.0898 27.7891V28.1094H82.6211V27.457H85.6133L85.1523 28.0664V27.6797C85.1523 27.3958 85.1094 27.1602 85.0234 26.9727C84.9375 26.7852 84.8177 26.6445 84.6641 26.5508C84.513 26.457 84.3372 26.4102 84.1367 26.4102C83.9362 26.4102 83.7578 26.4596 83.6016 26.5586C83.4479 26.6549 83.3255 26.7982 83.2344 26.9883C83.1458 27.1758 83.1016 27.4062 83.1016 27.6797V28.0703C83.1016 28.3333 83.1458 28.5586 83.2344 28.7461C83.3229 28.931 83.4479 29.0742 83.6094 29.1758C83.7734 29.2747 83.9674 29.3242 84.1914 29.3242C84.3659 29.3242 84.5156 29.2995 84.6406 29.25C84.7682 29.1979 84.8711 29.1367 84.9492 29.0664C85.0273 28.9935 85.082 28.9245 85.1133 28.8594L85.125 28.832H86.0469L86.0391 28.8672C86.0052 29.0052 85.9427 29.1458 85.8516 29.2891C85.763 29.4297 85.6419 29.5612 85.4883 29.6836C85.3372 29.8034 85.1523 29.901 84.9336 29.9766C84.7148 30.0495 84.4609 30.0859 84.1719 30.0859ZM11.4688 41.5C11.4089 41.5 11.3464 41.4987 11.2812 41.4961C11.2188 41.4935 11.1576 41.4896 11.0977 41.4844V40.7383C11.1367 40.7435 11.1823 40.7461 11.2344 40.7461C11.2865 40.7487 11.3372 40.75 11.3867 40.75C11.5872 40.75 11.7474 40.7057 11.8672 40.6172C11.9896 40.5312 12.0768 40.3919 12.1289 40.1992L12.1797 40.0039L10.6523 35.7305H11.7148L12.8398 39.5117L12.5742 39.0664H12.9102L12.6523 39.5117L13.7773 35.7305H14.8008L13.2695 40.0938C13.1471 40.4479 13.0065 40.7279 12.8477 40.9336C12.6888 41.1393 12.4974 41.2852 12.2734 41.3711C12.0521 41.457 11.7839 41.5 11.4688 41.5ZM17.3008 40.0859C16.8763 40.0859 16.5104 39.9974 16.2031 39.8203C15.8958 39.6406 15.6589 39.3854 15.4922 39.0547C15.3281 38.724 15.2461 38.3281 15.2461 37.8672V37.8594C15.2461 37.4036 15.3294 37.0104 15.4961 36.6797C15.6628 36.3464 15.8984 36.0911 16.2031 35.9141C16.5104 35.737 16.8763 35.6484 17.3008 35.6484C17.7253 35.6484 18.0898 35.737 18.3945 35.9141C18.7018 36.0911 18.9388 36.3451 19.1055 36.6758C19.2721 37.0065 19.3555 37.401 19.3555 37.8594V37.8672C19.3555 38.3281 19.2721 38.724 19.1055 39.0547C18.9414 39.3854 18.7057 39.6406 18.3984 39.8203C18.0938 39.9974 17.7279 40.0859 17.3008 40.0859ZM17.3008 39.2969C17.5247 39.2969 17.7148 39.2409 17.8711 39.1289C18.0299 39.0143 18.151 38.8516 18.2344 38.6406C18.3177 38.4271 18.3594 38.1706 18.3594 37.8711V37.8633C18.3594 37.5612 18.3177 37.3047 18.2344 37.0938C18.151 36.8802 18.0299 36.7174 17.8711 36.6055C17.7148 36.4909 17.5247 36.4336 17.3008 36.4336C17.0768 36.4336 16.8854 36.4909 16.7266 36.6055C16.5677 36.7174 16.4466 36.8802 16.3633 37.0938C16.2799 37.3047 16.2383 37.5612 16.2383 37.8633V37.8711C16.2383 38.1706 16.2799 38.4271 16.3633 38.6406C16.4466 38.8542 16.5664 39.0169 16.7227 39.1289C16.8815 39.2409 17.0742 39.2969 17.3008 39.2969ZM21.7461 40.0859C21.4284 40.0859 21.1615 40.0247 20.9453 39.9023C20.7292 39.7773 20.5664 39.5964 20.457 39.3594C20.3477 39.1198 20.293 38.8307 20.293 38.4922V35.7305H21.2656V38.2695C21.2656 38.6003 21.3307 38.849 21.4609 39.0156C21.5911 39.1823 21.8034 39.2656 22.0977 39.2656C22.2539 39.2656 22.3919 39.2422 22.5117 39.1953C22.6341 39.1458 22.7357 39.0755 22.8164 38.9844C22.8971 38.8932 22.9583 38.7839 23 38.6562C23.0417 38.526 23.0625 38.3802 23.0625 38.2188V35.7305H24.0352V40H23.0625V39.3516H22.9961C22.931 39.5026 22.8398 39.6341 22.7227 39.7461C22.6055 39.8555 22.4648 39.9401 22.3008 40C22.1367 40.0573 21.9518 40.0859 21.7461 40.0859ZM25.2227 40V35.7305H26.1953V36.3867H26.2617C26.3346 36.1576 26.4648 35.9792 26.6523 35.8516C26.8424 35.724 27.0781 35.6602 27.3594 35.6602C27.4323 35.6602 27.5039 35.6654 27.5742 35.6758C27.6471 35.6836 27.707 35.694 27.7539 35.707V36.5781C27.6758 36.5599 27.5964 36.5469 27.5156 36.5391C27.4375 36.5286 27.3555 36.5234 27.2695 36.5234C27.0534 36.5234 26.8646 36.5638 26.7031 36.6445C26.5417 36.7253 26.4167 36.8411 26.3281 36.9922C26.2396 37.1406 26.1953 37.3164 26.1953 37.5195V40H25.2227ZM32.5039 40.0859C32.0794 40.0859 31.7148 39.9961 31.4102 39.8164C31.1081 39.6367 30.875 39.3815 30.7109 39.0508C30.5469 38.7201 30.4648 38.3281 30.4648 37.875V37.8711C30.4648 37.4232 30.5456 37.0326 30.707 36.6992C30.8711 36.3659 31.1029 36.1081 31.4023 35.9258C31.7018 35.7409 32.0534 35.6484 32.457 35.6484C32.8633 35.6484 33.2122 35.7383 33.5039 35.918C33.7982 36.0951 34.0247 36.3438 34.1836 36.6641C34.3424 36.9844 34.4219 37.3594 34.4219 37.7891V38.1094H30.9531V37.457H33.9453L33.4844 38.0664V37.6797C33.4844 37.3958 33.4414 37.1602 33.3555 36.9727C33.2695 36.7852 33.1497 36.6445 32.9961 36.5508C32.8451 36.457 32.6693 36.4102 32.4688 36.4102C32.2682 36.4102 32.0898 36.4596 31.9336 36.5586C31.7799 36.6549 31.6576 36.7982 31.5664 36.9883C31.4779 37.1758 31.4336 37.4062 31.4336 37.6797V38.0703C31.4336 38.3333 31.4779 38.5586 31.5664 38.7461C31.6549 38.931 31.7799 39.0742 31.9414 39.1758C32.1055 39.2747 32.2995 39.3242 32.5234 39.3242C32.6979 39.3242 32.8477 39.2995 32.9727 39.25C33.1003 39.1979 33.2031 39.1367 33.2812 39.0664C33.3594 38.9935 33.4141 38.9245 33.4453 38.8594L33.457 38.832H34.3789L34.3711 38.8672C34.3372 39.0052 34.2747 39.1458 34.1836 39.2891C34.0951 39.4297 33.974 39.5612 33.8203 39.6836C33.6693 39.8034 33.4844 39.901 33.2656 39.9766C33.0469 40.0495 32.793 40.0859 32.5039 40.0859ZM35.75 41.5C35.6901 41.5 35.6276 41.4987 35.5625 41.4961C35.5 41.4935 35.4388 41.4896 35.3789 41.4844V40.7383C35.418 40.7435 35.4635 40.7461 35.5156 40.7461C35.5677 40.7487 35.6185 40.75 35.668 40.75C35.8685 40.75 36.0286 40.7057 36.1484 40.6172C36.2708 40.5312 36.3581 40.3919 36.4102 40.1992L36.4609 40.0039L34.9336 35.7305H35.9961L37.1211 39.5117L36.8555 39.0664H37.1914L36.9336 39.5117L38.0586 35.7305H39.082L37.5508 40.0938C37.4284 40.4479 37.2878 40.7279 37.1289 40.9336C36.9701 41.1393 36.7786 41.2852 36.5547 41.3711C36.3333 41.457 36.0651 41.5 35.75 41.5ZM41.5664 40.0859C41.1419 40.0859 40.7773 39.9961 40.4727 39.8164C40.1706 39.6367 39.9375 39.3815 39.7734 39.0508C39.6094 38.7201 39.5273 38.3281 39.5273 37.875V37.8711C39.5273 37.4232 39.6081 37.0326 39.7695 36.6992C39.9336 36.3659 40.1654 36.1081 40.4648 35.9258C40.7643 35.7409 41.1159 35.6484 41.5195 35.6484C41.9258 35.6484 42.2747 35.7383 42.5664 35.918C42.8607 36.0951 43.0872 36.3438 43.2461 36.6641C43.4049 36.9844 43.4844 37.3594 43.4844 37.7891V38.1094H40.0156V37.457H43.0078L42.5469 38.0664V37.6797C42.5469 37.3958 42.5039 37.1602 42.418 36.9727C42.332 36.7852 42.2122 36.6445 42.0586 36.5508C41.9076 36.457 41.7318 36.4102 41.5312 36.4102C41.3307 36.4102 41.1523 36.4596 40.9961 36.5586C40.8424 36.6549 40.7201 36.7982 40.6289 36.9883C40.5404 37.1758 40.4961 37.4062 40.4961 37.6797V38.0703C40.4961 38.3333 40.5404 38.5586 40.6289 38.7461C40.7174 38.931 40.8424 39.0742 41.0039 39.1758C41.168 39.2747 41.362 39.3242 41.5859 39.3242C41.7604 39.3242 41.9102 39.2995 42.0352 39.25C42.1628 39.1979 42.2656 39.1367 42.3438 39.0664C42.4219 38.9935 42.4766 38.9245 42.5078 38.8594L42.5195 38.832H43.4414L43.4336 38.8672C43.3997 39.0052 43.3372 39.1458 43.2461 39.2891C43.1576 39.4297 43.0365 39.5612 42.8828 39.6836C42.7318 39.8034 42.5469 39.901 42.3281 39.9766C42.1094 40.0495 41.8555 40.0859 41.5664 40.0859ZM46.0703 40.0859C45.7083 40.0859 45.3958 40.0352 45.1328 39.9336C44.8724 39.8294 44.6667 39.6862 44.5156 39.5039C44.3646 39.319 44.2747 39.1055 44.2461 38.8633V38.8555H45.2109L45.2148 38.8633C45.2669 39.0117 45.3646 39.1328 45.5078 39.2266C45.651 39.3203 45.8438 39.3672 46.0859 39.3672C46.2474 39.3672 46.3893 39.3451 46.5117 39.3008C46.6341 39.2539 46.7305 39.1901 46.8008 39.1094C46.8711 39.0286 46.9062 38.9349 46.9062 38.8281V38.8203C46.9062 38.6953 46.8555 38.5911 46.7539 38.5078C46.6523 38.4219 46.4844 38.3529 46.25 38.3008L45.5586 38.1445C45.2878 38.0846 45.0638 38.0013 44.8867 37.8945C44.7096 37.7878 44.5768 37.6562 44.4883 37.5C44.4023 37.3438 44.3594 37.1615 44.3594 36.9531V36.9492C44.3594 36.6914 44.431 36.4648 44.5742 36.2695C44.7201 36.0742 44.9219 35.9219 45.1797 35.8125C45.4375 35.7031 45.7344 35.6484 46.0703 35.6484C46.4167 35.6484 46.7148 35.7005 46.9648 35.8047C47.2148 35.9089 47.4102 36.0521 47.5508 36.2344C47.6914 36.4167 47.7721 36.6237 47.793 36.8555V36.8633H46.8789L46.875 36.8516C46.8385 36.7161 46.7513 36.6016 46.6133 36.5078C46.4779 36.4115 46.2956 36.3633 46.0664 36.3633C45.9232 36.3633 45.7943 36.3854 45.6797 36.4297C45.5677 36.474 45.4792 36.5365 45.4141 36.6172C45.3516 36.6953 45.3203 36.7878 45.3203 36.8945V36.8984C45.3203 36.9818 45.3411 37.0547 45.3828 37.1172C45.4271 37.1797 45.4961 37.2344 45.5898 37.2812C45.6836 37.3281 45.8073 37.3698 45.9609 37.4062L46.6523 37.5586C47.0716 37.6523 47.3815 37.7917 47.582 37.9766C47.7826 38.1615 47.8828 38.4102 47.8828 38.7227V38.7305C47.8828 39.0013 47.8047 39.2383 47.6484 39.4414C47.4922 39.6445 47.2773 39.8034 47.0039 39.918C46.7305 40.0299 46.4193 40.0859 46.0703 40.0859ZM52.1602 40.0703C51.8919 40.0703 51.651 40.0182 51.4375 39.9141C51.2266 39.8099 51.0599 39.6628 50.9375 39.4727C50.8177 39.2799 50.7578 39.0534 50.7578 38.793V38.7852C50.7578 38.5326 50.8203 38.3151 50.9453 38.1328C51.0703 37.9479 51.2539 37.8034 51.4961 37.6992C51.7383 37.5951 52.0326 37.5339 52.3789 37.5156L53.957 37.418V38.0586L52.5156 38.1523C52.2422 38.168 52.0404 38.2253 51.9102 38.3242C51.7799 38.4232 51.7148 38.5612 51.7148 38.7383V38.7461C51.7148 38.9284 51.7839 39.0703 51.9219 39.1719C52.0625 39.2734 52.2409 39.3242 52.457 39.3242C52.6523 39.3242 52.8268 39.2852 52.9805 39.207C53.1341 39.1289 53.2552 39.0234 53.3438 38.8906C53.4323 38.7552 53.4766 38.6029 53.4766 38.4336V37.082C53.4766 36.8685 53.4089 36.7057 53.2734 36.5938C53.138 36.4792 52.9375 36.4219 52.6719 36.4219C52.4505 36.4219 52.2695 36.4609 52.1289 36.5391C51.9883 36.6146 51.8932 36.7227 51.8438 36.8633L51.8398 36.8789H50.9219L50.9258 36.8438C50.957 36.6042 51.0508 36.3945 51.207 36.2148C51.3633 36.0352 51.5703 35.8958 51.8281 35.7969C52.0859 35.6979 52.3828 35.6484 52.7188 35.6484C53.0885 35.6484 53.401 35.7057 53.6562 35.8203C53.9115 35.9323 54.1055 36.0964 54.2383 36.3125C54.3711 36.526 54.4375 36.7826 54.4375 37.082V40H53.4766V39.4141H53.4102C53.332 39.5495 53.2305 39.6667 53.1055 39.7656C52.9831 39.8646 52.8424 39.9401 52.6836 39.9922C52.5247 40.0443 52.3503 40.0703 52.1602 40.0703ZM55.6055 40V35.7305H56.5781V36.3867H56.6445C56.7461 36.1549 56.8997 35.974 57.1055 35.8438C57.3112 35.7135 57.5677 35.6484 57.875 35.6484C58.3516 35.6484 58.7161 35.7865 58.9688 36.0625C59.2214 36.3385 59.3477 36.7305 59.3477 37.2383V40H58.375V37.4648C58.375 37.1315 58.3047 36.8815 58.1641 36.7148C58.026 36.5482 57.8099 36.4648 57.5156 36.4648C57.3229 36.4648 57.1562 36.5078 57.0156 36.5938C56.875 36.6797 56.7669 36.8008 56.6914 36.957C56.6159 37.1133 56.5781 37.2982 56.5781 37.5117V40H55.6055ZM62.0352 40.0703C61.681 40.0703 61.3724 39.9818 61.1094 39.8047C60.8464 39.625 60.6432 39.3698 60.5 39.0391C60.3568 38.7083 60.2852 38.319 60.2852 37.8711V37.8633C60.2852 37.4102 60.3555 37.0195 60.4961 36.6914C60.6393 36.3607 60.8411 36.1068 61.1016 35.9297C61.3646 35.75 61.6758 35.6602 62.0352 35.6602C62.2305 35.6602 62.4128 35.6914 62.582 35.7539C62.7513 35.8138 62.8997 35.8997 63.0273 36.0117C63.1576 36.1237 63.2591 36.2565 63.332 36.4102H63.4023V34.0781H64.3711V40H63.4023V39.332H63.332C63.2539 39.4857 63.151 39.6185 63.0234 39.7305C62.8984 39.8398 62.7526 39.9245 62.5859 39.9844C62.4193 40.0417 62.2357 40.0703 62.0352 40.0703ZM62.3398 39.25C62.5612 39.25 62.7513 39.1953 62.9102 39.0859C63.0716 38.974 63.1953 38.8151 63.2812 38.6094C63.3698 38.401 63.4141 38.1549 63.4141 37.8711V37.8633C63.4141 37.5768 63.3698 37.3307 63.2812 37.125C63.1953 36.9193 63.0716 36.7604 62.9102 36.6484C62.7513 36.5365 62.5612 36.4805 62.3398 36.4805C62.1211 36.4805 61.931 36.5365 61.7695 36.6484C61.6107 36.7578 61.4883 36.9167 61.4023 37.125C61.3164 37.3307 61.2734 37.5768 61.2734 37.8633V37.8711C61.2734 38.1576 61.3164 38.4036 61.4023 38.6094C61.4883 38.8151 61.6107 38.974 61.7695 39.0859C61.9284 39.1953 62.1185 39.25 62.3398 39.25ZM69.3438 40.0859C68.9818 40.0859 68.6693 40.0352 68.4062 39.9336C68.1458 39.8294 67.9401 39.6862 67.7891 39.5039C67.638 39.319 67.5482 39.1055 67.5195 38.8633V38.8555H68.4844L68.4883 38.8633C68.5404 39.0117 68.638 39.1328 68.7812 39.2266C68.9245 39.3203 69.1172 39.3672 69.3594 39.3672C69.5208 39.3672 69.6628 39.3451 69.7852 39.3008C69.9076 39.2539 70.0039 39.1901 70.0742 39.1094C70.1445 39.0286 70.1797 38.9349 70.1797 38.8281V38.8203C70.1797 38.6953 70.1289 38.5911 70.0273 38.5078C69.9258 38.4219 69.7578 38.3529 69.5234 38.3008L68.832 38.1445C68.5612 38.0846 68.3372 38.0013 68.1602 37.8945C67.9831 37.7878 67.8503 37.6562 67.7617 37.5C67.6758 37.3438 67.6328 37.1615 67.6328 36.9531V36.9492C67.6328 36.6914 67.7044 36.4648 67.8477 36.2695C67.9935 36.0742 68.1953 35.9219 68.4531 35.8125C68.7109 35.7031 69.0078 35.6484 69.3438 35.6484C69.6901 35.6484 69.9883 35.7005 70.2383 35.8047C70.4883 35.9089 70.6836 36.0521 70.8242 36.2344C70.9648 36.4167 71.0456 36.6237 71.0664 36.8555V36.8633H70.1523L70.1484 36.8516C70.112 36.7161 70.0247 36.6016 69.8867 36.5078C69.7513 36.4115 69.569 36.3633 69.3398 36.3633C69.1966 36.3633 69.0677 36.3854 68.9531 36.4297C68.8411 36.474 68.7526 36.5365 68.6875 36.6172C68.625 36.6953 68.5938 36.7878 68.5938 36.8945V36.8984C68.5938 36.9818 68.6146 37.0547 68.6562 37.1172C68.7005 37.1797 68.7695 37.2344 68.8633 37.2812C68.957 37.3281 69.0807 37.3698 69.2344 37.4062L69.9258 37.5586C70.3451 37.6523 70.6549 37.7917 70.8555 37.9766C71.056 38.1615 71.1562 38.4102 71.1562 38.7227V38.7305C71.1562 39.0013 71.0781 39.2383 70.9219 39.4414C70.7656 39.6445 70.5508 39.8034 70.2773 39.918C70.0039 40.0299 69.6927 40.0859 69.3438 40.0859ZM72.1367 40V35.7305H73.1094V36.3945H73.1758C73.2669 36.1576 73.4141 35.974 73.6172 35.8438C73.8229 35.7135 74.0664 35.6484 74.3477 35.6484C74.5404 35.6484 74.7135 35.6797 74.8672 35.7422C75.0234 35.8047 75.1576 35.8932 75.2695 36.0078C75.3815 36.1224 75.4674 36.2591 75.5273 36.418H75.5977C75.668 36.2643 75.7656 36.1302 75.8906 36.0156C76.0182 35.8984 76.1667 35.8086 76.3359 35.7461C76.5078 35.681 76.6927 35.6484 76.8906 35.6484C77.1771 35.6484 77.4219 35.7057 77.625 35.8203C77.8307 35.9323 77.9883 36.0938 78.0977 36.3047C78.2096 36.5156 78.2656 36.7682 78.2656 37.0625V40H77.293V37.3008C77.293 37.1133 77.2643 36.9583 77.207 36.8359C77.1523 36.7135 77.0677 36.6211 76.9531 36.5586C76.8385 36.4961 76.694 36.4648 76.5195 36.4648C76.3503 36.4648 76.2031 36.5039 76.0781 36.582C75.9531 36.6576 75.8555 36.7604 75.7852 36.8906C75.7174 37.0208 75.6836 37.168 75.6836 37.332V40H74.7109V37.2305C74.7109 37.0716 74.6797 36.9349 74.6172 36.8203C74.5573 36.7057 74.4688 36.6185 74.3516 36.5586C74.237 36.4961 74.1003 36.4648 73.9414 36.4648C73.7826 36.4648 73.6393 36.5065 73.5117 36.5898C73.3867 36.6706 73.2878 36.7826 73.2148 36.9258C73.1445 37.0664 73.1094 37.2253 73.1094 37.4023V40H72.1367ZM79.4219 40V35.7305H80.3906V40H79.4219ZM79.9102 35.0156C79.7513 35.0156 79.6146 34.9596 79.5 34.8477C79.3854 34.7357 79.3281 34.6016 79.3281 34.4453C79.3281 34.2839 79.3854 34.1484 79.5 34.0391C79.6146 33.9271 79.7513 33.8711 79.9102 33.8711C80.069 33.8711 80.2044 33.9271 80.3164 34.0391C80.431 34.1484 80.4883 34.2839 80.4883 34.4453C80.4883 34.6016 80.431 34.7357 80.3164 34.8477C80.2044 34.9596 80.069 35.0156 79.9102 35.0156ZM81.6289 40V34.0781H82.6016V40H81.6289ZM85.6523 40.0859C85.2279 40.0859 84.8633 39.9961 84.5586 39.8164C84.2565 39.6367 84.0234 39.3815 83.8594 39.0508C83.6953 38.7201 83.6133 38.3281 83.6133 37.875V37.8711C83.6133 37.4232 83.694 37.0326 83.8555 36.6992C84.0195 36.3659 84.2513 36.1081 84.5508 35.9258C84.8503 35.7409 85.2018 35.6484 85.6055 35.6484C86.0117 35.6484 86.3607 35.7383 86.6523 35.918C86.9466 36.0951 87.1732 36.3438 87.332 36.6641C87.4909 36.9844 87.5703 37.3594 87.5703 37.7891V38.1094H84.1016V37.457H87.0938L86.6328 38.0664V37.6797C86.6328 37.3958 86.5898 37.1602 86.5039 36.9727C86.418 36.7852 86.2982 36.6445 86.1445 36.5508C85.9935 36.457 85.8177 36.4102 85.6172 36.4102C85.4167 36.4102 85.2383 36.4596 85.082 36.5586C84.9284 36.6549 84.806 36.7982 84.7148 36.9883C84.6263 37.1758 84.582 37.4062 84.582 37.6797V38.0703C84.582 38.3333 84.6263 38.5586 84.7148 38.7461C84.8034 38.931 84.9284 39.0742 85.0898 39.1758C85.2539 39.2747 85.4479 39.3242 85.6719 39.3242C85.8464 39.3242 85.9961 39.2995 86.1211 39.25C86.2487 39.1979 86.3516 39.1367 86.4297 39.0664C86.5078 38.9935 86.5625 38.9245 86.5938 38.8594L86.6055 38.832H87.5273L87.5195 38.8672C87.4857 39.0052 87.4232 39.1458 87.332 39.2891C87.2435 39.4297 87.1224 39.5612 86.9688 39.6836C86.8177 39.8034 86.6328 39.901 86.4141 39.9766C86.1953 40.0495 85.9414 40.0859 85.6523 40.0859ZM89.2656 40.0742C89.0885 40.0742 88.9401 40.0156 88.8203 39.8984C88.7031 39.7786 88.6445 39.6328 88.6445 39.4609C88.6445 39.2865 88.7031 39.1406 88.8203 39.0234C88.9401 38.9036 89.0885 38.8438 89.2656 38.8438C89.4453 38.8438 89.5938 38.9036 89.7109 39.0234C89.8281 39.1406 89.8867 39.2865 89.8867 39.4609C89.8867 39.6328 89.8281 39.7786 89.7109 39.8984C89.5938 40.0156 89.4453 40.0742 89.2656 40.0742ZM21.0742 60.1406C20.8008 60.1406 20.556 60.1016 20.3398 60.0234C20.1237 59.9453 19.9388 59.8346 19.7852 59.6914C19.6341 59.5482 19.5156 59.3776 19.4297 59.1797C19.3464 58.9792 19.2995 58.7578 19.2891 58.5156L19.2852 58.4727H20.2695L20.2734 58.5039C20.2839 58.6471 20.319 58.776 20.3789 58.8906C20.4414 59.0026 20.5299 59.0924 20.6445 59.1602C20.7591 59.2253 20.8984 59.2578 21.0625 59.2578C21.3359 59.2578 21.543 59.1784 21.6836 59.0195C21.8268 58.8581 21.8984 58.625 21.8984 58.3203V54.3633H22.9023V58.3281C22.9023 58.7083 22.8307 59.0339 22.6875 59.3047C22.5443 59.5755 22.3359 59.7826 22.0625 59.9258C21.7891 60.069 21.4596 60.1406 21.0742 60.1406ZM25.6094 60.0859C25.2917 60.0859 25.0247 60.0247 24.8086 59.9023C24.5924 59.7773 24.4297 59.5964 24.3203 59.3594C24.2109 59.1198 24.1562 58.8307 24.1562 58.4922V55.7305H25.1289V58.2695C25.1289 58.6003 25.194 58.849 25.3242 59.0156C25.4544 59.1823 25.6667 59.2656 25.9609 59.2656C26.1172 59.2656 26.2552 59.2422 26.375 59.1953C26.4974 59.1458 26.599 59.0755 26.6797 58.9844C26.7604 58.8932 26.8216 58.7839 26.8633 58.6562C26.9049 58.526 26.9258 58.3802 26.9258 58.2188V55.7305H27.8984V60H26.9258V59.3516H26.8594C26.7943 59.5026 26.7031 59.6341 26.5859 59.7461C26.4688 59.8555 26.3281 59.9401 26.1641 60C26 60.0573 25.8151 60.0859 25.6094 60.0859ZM30.6992 60.0859C30.3372 60.0859 30.0247 60.0352 29.7617 59.9336C29.5013 59.8294 29.2956 59.6862 29.1445 59.5039C28.9935 59.319 28.9036 59.1055 28.875 58.8633V58.8555H29.8398L29.8438 58.8633C29.8958 59.0117 29.9935 59.1328 30.1367 59.2266C30.2799 59.3203 30.4727 59.3672 30.7148 59.3672C30.8763 59.3672 31.0182 59.3451 31.1406 59.3008C31.263 59.2539 31.3594 59.1901 31.4297 59.1094C31.5 59.0286 31.5352 58.9349 31.5352 58.8281V58.8203C31.5352 58.6953 31.4844 58.5911 31.3828 58.5078C31.2812 58.4219 31.1133 58.3529 30.8789 58.3008L30.1875 58.1445C29.9167 58.0846 29.6927 58.0013 29.5156 57.8945C29.3385 57.7878 29.2057 57.6562 29.1172 57.5C29.0312 57.3438 28.9883 57.1615 28.9883 56.9531V56.9492C28.9883 56.6914 29.0599 56.4648 29.2031 56.2695C29.349 56.0742 29.5508 55.9219 29.8086 55.8125C30.0664 55.7031 30.3633 55.6484 30.6992 55.6484C31.0456 55.6484 31.3438 55.7005 31.5938 55.8047C31.8438 55.9089 32.0391 56.0521 32.1797 56.2344C32.3203 56.4167 32.401 56.6237 32.4219 56.8555V56.8633H31.5078L31.5039 56.8516C31.4674 56.7161 31.3802 56.6016 31.2422 56.5078C31.1068 56.4115 30.9245 56.3633 30.6953 56.3633C30.5521 56.3633 30.4232 56.3854 30.3086 56.4297C30.1966 56.474 30.1081 56.5365 30.043 56.6172C29.9805 56.6953 29.9492 56.7878 29.9492 56.8945V56.8984C29.9492 56.9818 29.9701 57.0547 30.0117 57.1172C30.056 57.1797 30.125 57.2344 30.2188 57.2812C30.3125 57.3281 30.4362 57.3698 30.5898 57.4062L31.2812 57.5586C31.7005 57.6523 32.0104 57.7917 32.2109 57.9766C32.4115 58.1615 32.5117 58.4102 32.5117 58.7227V58.7305C32.5117 59.0013 32.4336 59.2383 32.2773 59.4414C32.1211 59.6445 31.9062 59.8034 31.6328 59.918C31.3594 60.0299 31.0482 60.0859 30.6992 60.0859ZM35.1484 60.0195C34.6589 60.0195 34.306 59.9297 34.0898 59.75C33.8737 59.5703 33.7656 59.276 33.7656 58.8672V56.4844H33.1016V55.7305H33.7656V54.6836H34.7539V55.7305H35.6523V56.4844H34.7539V58.6367C34.7539 58.8477 34.7982 59.0026 34.8867 59.1016C34.9779 59.1979 35.1237 59.2461 35.3242 59.2461C35.3945 59.2461 35.4518 59.2448 35.4961 59.2422C35.543 59.237 35.5951 59.2318 35.6523 59.2266V59.9766C35.5846 59.9896 35.5065 60 35.418 60.0078C35.332 60.0156 35.2422 60.0195 35.1484 60.0195ZM39.3633 58.1367V57.3242H40.8633C41.2253 57.3242 41.5065 57.2318 41.707 57.0469C41.9076 56.8594 42.0078 56.5964 42.0078 56.2578V56.25C42.0078 55.9089 41.9076 55.6458 41.707 55.4609C41.5065 55.276 41.2253 55.1836 40.8633 55.1836H39.3633V54.3633H41.1094C41.4922 54.3633 41.8268 54.4414 42.1133 54.5977C42.3997 54.7539 42.6237 54.974 42.7852 55.2578C42.9466 55.5391 43.0273 55.8685 43.0273 56.2461V56.2539C43.0273 56.6289 42.9466 56.9583 42.7852 57.2422C42.6237 57.5234 42.3997 57.7435 42.1133 57.9023C41.8268 58.0586 41.4922 58.1367 41.1094 58.1367H39.3633ZM38.8594 60V54.3633H39.8672V60H38.8594ZM45.4531 60.0859C45.1354 60.0859 44.8685 60.0247 44.6523 59.9023C44.4362 59.7773 44.2734 59.5964 44.1641 59.3594C44.0547 59.1198 44 58.8307 44 58.4922V55.7305H44.9727V58.2695C44.9727 58.6003 45.0378 58.849 45.168 59.0156C45.2982 59.1823 45.5104 59.2656 45.8047 59.2656C45.9609 59.2656 46.099 59.2422 46.2188 59.1953C46.3411 59.1458 46.4427 59.0755 46.5234 58.9844C46.6042 58.8932 46.6654 58.7839 46.707 58.6562C46.7487 58.526 46.7695 58.3802 46.7695 58.2188V55.7305H47.7422V60H46.7695V59.3516H46.7031C46.638 59.5026 46.5469 59.6341 46.4297 59.7461C46.3125 59.8555 46.1719 59.9401 46.0078 60C45.8438 60.0573 45.6589 60.0859 45.4531 60.0859ZM48.9297 60V55.7305H49.9023V56.3867H49.9688C50.0417 56.1576 50.1719 55.9792 50.3594 55.8516C50.5495 55.724 50.7852 55.6602 51.0664 55.6602C51.1393 55.6602 51.2109 55.6654 51.2812 55.6758C51.3542 55.6836 51.4141 55.694 51.4609 55.707V56.5781C51.3828 56.5599 51.3034 56.5469 51.2227 56.5391C51.1445 56.5286 51.0625 56.5234 50.9766 56.5234C50.7604 56.5234 50.5716 56.5638 50.4102 56.6445C50.2487 56.7253 50.1237 56.8411 50.0352 56.9922C49.9466 57.1406 49.9023 57.3164 49.9023 57.5195V60H48.9297ZM52.3047 60V55.7305H53.2773V56.3867H53.3438C53.4167 56.1576 53.5469 55.9792 53.7344 55.8516C53.9245 55.724 54.1602 55.6602 54.4414 55.6602C54.5143 55.6602 54.5859 55.6654 54.6562 55.6758C54.7292 55.6836 54.7891 55.694 54.8359 55.707V56.5781C54.7578 56.5599 54.6784 56.5469 54.5977 56.5391C54.5195 56.5286 54.4375 56.5234 54.3516 56.5234C54.1354 56.5234 53.9466 56.5638 53.7852 56.6445C53.6237 56.7253 53.4987 56.8411 53.4102 56.9922C53.3216 57.1406 53.2773 57.3164 53.2773 57.5195V60H52.3047ZM55.6797 60V55.7305H56.6523V56.3867H56.7188C56.7917 56.1576 56.9219 55.9792 57.1094 55.8516C57.2995 55.724 57.5352 55.6602 57.8164 55.6602C57.8893 55.6602 57.9609 55.6654 58.0312 55.6758C58.1042 55.6836 58.1641 55.694 58.2109 55.707V56.5781C58.1328 56.5599 58.0534 56.5469 57.9727 56.5391C57.8945 56.5286 57.8125 56.5234 57.7266 56.5234C57.5104 56.5234 57.3216 56.5638 57.1602 56.6445C56.9987 56.7253 56.8737 56.8411 56.7852 56.9922C56.6966 57.1406 56.6523 57.3164 56.6523 57.5195V60H55.6797ZM59.5078 60V56.4844H58.8086V55.7305H59.5078V55.3086C59.5078 55.0221 59.556 54.7852 59.6523 54.5977C59.7513 54.4102 59.9036 54.2708 60.1094 54.1797C60.3151 54.0859 60.5755 54.0391 60.8906 54.0391C60.9948 54.0391 61.0911 54.043 61.1797 54.0508C61.2682 54.056 61.3503 54.0651 61.4258 54.0781V54.7578C61.3893 54.7526 61.3424 54.7487 61.2852 54.7461C61.2279 54.7409 61.1654 54.7383 61.0977 54.7383C60.8685 54.7383 60.7057 54.7917 60.6094 54.8984C60.513 55.0026 60.4648 55.1576 60.4648 55.3633V55.7305H61.3906V56.4844H60.4805V60H59.5078ZM64 60.0859C63.5755 60.0859 63.2109 59.9961 62.9062 59.8164C62.6042 59.6367 62.3711 59.3815 62.207 59.0508C62.043 58.7201 61.9609 58.3281 61.9609 57.875V57.8711C61.9609 57.4232 62.0417 57.0326 62.2031 56.6992C62.3672 56.3659 62.599 56.1081 62.8984 55.9258C63.1979 55.7409 63.5495 55.6484 63.9531 55.6484C64.3594 55.6484 64.7083 55.7383 65 55.918C65.2943 56.0951 65.5208 56.3438 65.6797 56.6641C65.8385 56.9844 65.918 57.3594 65.918 57.7891V58.1094H62.4492V57.457H65.4414L64.9805 58.0664V57.6797C64.9805 57.3958 64.9375 57.1602 64.8516 56.9727C64.7656 56.7852 64.6458 56.6445 64.4922 56.5508C64.3411 56.457 64.1654 56.4102 63.9648 56.4102C63.7643 56.4102 63.5859 56.4596 63.4297 56.5586C63.276 56.6549 63.1536 56.7982 63.0625 56.9883C62.974 57.1758 62.9297 57.4062 62.9297 57.6797V58.0703C62.9297 58.3333 62.974 58.5586 63.0625 58.7461C63.151 58.931 63.276 59.0742 63.4375 59.1758C63.6016 59.2747 63.7956 59.3242 64.0195 59.3242C64.194 59.3242 64.3438 59.2995 64.4688 59.25C64.5964 59.1979 64.6992 59.1367 64.7773 59.0664C64.8555 58.9935 64.9102 58.9245 64.9414 58.8594L64.9531 58.832H65.875L65.8672 58.8672C65.8333 59.0052 65.7708 59.1458 65.6797 59.2891C65.5911 59.4297 65.4701 59.5612 65.3164 59.6836C65.1654 59.8034 64.9805 59.901 64.7617 59.9766C64.543 60.0495 64.2891 60.0859 64 60.0859ZM68.7227 60.0859C68.293 60.0859 67.9258 59.9974 67.6211 59.8203C67.3164 59.6432 67.0833 59.388 66.9219 59.0547C66.7604 58.7214 66.6797 58.3229 66.6797 57.8594V57.8516C66.6797 57.3906 66.7604 56.9961 66.9219 56.668C67.0833 56.3398 67.3164 56.0885 67.6211 55.9141C67.9258 55.737 68.2917 55.6484 68.7188 55.6484C69.0859 55.6484 69.401 55.7122 69.6641 55.8398C69.9297 55.9648 70.1393 56.1393 70.293 56.3633C70.4492 56.5846 70.5456 56.8438 70.582 57.1406V57.1562H69.6641L69.6602 57.1445C69.6159 56.9362 69.5143 56.7656 69.3555 56.6328C69.1992 56.5 68.9883 56.4336 68.7227 56.4336C68.5013 56.4336 68.3112 56.4896 68.1523 56.6016C67.9961 56.7135 67.8763 56.875 67.793 57.0859C67.7096 57.2969 67.668 57.5521 67.668 57.8516V57.8594C67.668 58.1615 67.7096 58.4206 67.793 58.6367C67.8789 58.8503 68 59.0143 68.1562 59.1289C68.3125 59.2409 68.5013 59.2969 68.7227 59.2969C68.9753 59.2969 69.1784 59.2396 69.332 59.125C69.4883 59.0104 69.5964 58.8411 69.6562 58.6172L69.6641 58.6016L70.5781 58.5977L70.5742 58.6328C70.5273 58.9219 70.4258 59.1758 70.2695 59.3945C70.1159 59.6133 69.9102 59.7839 69.6523 59.9062C69.3945 60.026 69.0846 60.0859 68.7227 60.0859ZM73.2422 60.0195C72.7526 60.0195 72.3997 59.9297 72.1836 59.75C71.9674 59.5703 71.8594 59.276 71.8594 58.8672V56.4844H71.1953V55.7305H71.8594V54.6836H72.8477V55.7305H73.7461V56.4844H72.8477V58.6367C72.8477 58.8477 72.8919 59.0026 72.9805 59.1016C73.0716 59.1979 73.2174 59.2461 73.418 59.2461C73.4883 59.2461 73.5456 59.2448 73.5898 59.2422C73.6367 59.237 73.6888 59.2318 73.7461 59.2266V59.9766C73.6784 59.9896 73.6003 60 73.5117 60.0078C73.4258 60.0156 73.3359 60.0195 73.2422 60.0195ZM75.4414 60.0742C75.2643 60.0742 75.1159 60.0156 74.9961 59.8984C74.8789 59.7786 74.8203 59.6328 74.8203 59.4609C74.8203 59.2865 74.8789 59.1406 74.9961 59.0234C75.1159 58.9036 75.2643 58.8438 75.4414 58.8438C75.6211 58.8438 75.7695 58.9036 75.8867 59.0234C76.0039 59.1406 76.0625 59.2865 76.0625 59.4609C76.0625 59.6328 76.0039 59.7786 75.8867 59.8984C75.7695 60.0156 75.6211 60.0742 75.4414 60.0742ZM78.0742 60.0742C77.8971 60.0742 77.7487 60.0156 77.6289 59.8984C77.5117 59.7786 77.4531 59.6328 77.4531 59.4609C77.4531 59.2865 77.5117 59.1406 77.6289 59.0234C77.7487 58.9036 77.8971 58.8438 78.0742 58.8438C78.2539 58.8438 78.4023 58.9036 78.5195 59.0234C78.6367 59.1406 78.6953 59.2865 78.6953 59.4609C78.6953 59.6328 78.6367 59.7786 78.5195 59.8984C78.4023 60.0156 78.2539 60.0742 78.0742 60.0742ZM80.707 60.0742C80.5299 60.0742 80.3815 60.0156 80.2617 59.8984C80.1445 59.7786 80.0859 59.6328 80.0859 59.4609C80.0859 59.2865 80.1445 59.1406 80.2617 59.0234C80.3815 58.9036 80.5299 58.8438 80.707 58.8438C80.8867 58.8438 81.0352 58.9036 81.1523 59.0234C81.2695 59.1406 81.3281 59.2865 81.3281 59.4609C81.3281 59.6328 81.2695 59.7786 81.1523 59.8984C81.0352 60.0156 80.8867 60.0742 80.707 60.0742Z" fill="black"/>
<path d="M22.5334 18.7394C40.4979 2.73094 65.2515 1.43595 77.9647 6.01947C87.7211 9.53698 96.3856 19.408 97.1499 35.1814C97.7099 46.7383 93.909 62.5207 66.5591 70.2092C46.039 75.9778 30.1697 73.3908 16.2327 64.8049C-4.56907 51.9899 -3.1015 22.7452 25.2889 5.10754" stroke="#0A0808" stroke-width="3" stroke-linecap="round"/>
<path d="M96.3358 85.5634C98.2285 84.1587 100.681 84.2285 101.901 84.7714C102.837 85.188 103.618 86.2097 103.575 87.7393C103.543 88.86 103.05 90.3546 100.294 90.8818C98.2255 91.2774 96.6791 90.9025 95.3684 89.9634C93.412 88.5617 93.7763 85.7485 96.71 84.2684" stroke="#0A0808" stroke-width="2" stroke-linecap="round"/>
</svg>
