<svg width="120" height="120" viewBox="0 0 120 120" fill="none" xmlns="http://www.w3.org/2000/svg">
<rect width="120" height="120" rx="60" fill="#54A2DC"/>
<path d="M29.1705 58.5233C46.9013 50.7575 58.7217 45.6373 64.632 43.1636C81.5267 36.1001 85.0328 34.8733 87.3228 34.8322C87.8264 34.8236 88.9476 34.9488 89.6793 35.544C90.2874 36.0456 90.4586 36.724 90.5441 37.1998C90.6201 37.6756 90.7248 38.76 90.6392 39.6065C89.727 49.2756 85.7647 72.7393 83.7503 83.5692C82.9046 88.1517 81.2226 89.6881 79.5977 89.8381C76.063 90.1648 73.3833 87.4915 69.9625 85.2374C64.6129 81.709 61.5914 79.5134 56.3938 76.0709C50.3885 72.0925 54.2842 69.9055 57.705 66.3321C58.5982 65.3967 74.1624 51.1655 74.457 49.8747C74.495 49.7132 74.5332 49.1113 74.1721 48.794C73.8205 48.4759 73.2976 48.5848 72.9175 48.6708C72.3759 48.7931 63.8336 54.4761 47.262 65.7187C44.8389 67.3946 42.644 68.2115 40.6676 68.1685C38.5011 68.1217 34.3205 66.934 31.2133 65.9194C27.4125 64.6744 24.3812 64.0161 24.6473 61.9017C24.7803 60.8011 26.2913 59.6746 29.1705 58.5233Z" fill="white"/>
</svg>
