<svg width="120" height="120" viewBox="0 0 120 120" fill="none" xmlns="http://www.w3.org/2000/svg">
<rect width="120" height="120" rx="60" fill="#007AFF"/>
<path d="M27.0051 48C27.0294 44.5052 27.1697 42.5062 27.9809 40.9141C28.8438 39.2206 30.2206 37.8438 31.9141 36.9809C33.8393 36 36.3595 36 41.4 36H78.6C83.6405 36 86.1607 36 88.0859 36.9809C89.7794 37.8438 91.1562 39.2206 92.0191 40.9141C92.8303 42.5062 92.9706 44.5052 92.9949 48H27.0051Z" fill="white"/>
<path fill-rule="evenodd" clip-rule="evenodd" d="M27 54V69.6C27 74.6405 27 77.1607 27.9809 79.0859C28.8438 80.7794 30.2206 82.1562 31.9141 83.0191C33.8393 84 36.3595 84 41.4 84H78.6C83.6405 84 86.1607 84 88.0859 83.0191C89.7794 82.1562 91.1562 80.7794 92.0191 79.0859C93 77.1607 93 74.6405 93 69.6V54H27ZM36 70.5C36 69.1022 36 68.4033 36.2284 67.8519C36.5328 67.1169 37.1169 66.5328 37.8519 66.2284C38.4033 66 39.1022 66 40.5 66H43.5C44.8978 66 45.5967 66 46.148 66.2284C46.8831 66.5328 47.4672 67.1169 47.7716 67.8519C48 68.4033 48 69.1022 48 70.5C48 71.8978 48 72.5967 47.7716 73.148C47.4672 73.8831 46.8831 74.4672 46.148 74.7716C45.5967 75 44.8978 75 43.5 75H40.5C39.1022 75 38.4033 75 37.8519 74.7716C37.1169 74.4672 36.5328 73.8831 36.2284 73.148C36 72.5967 36 71.8978 36 70.5Z" fill="white"/>
</svg>
