<svg width="29" height="29" viewBox="0 0 29 29" fill="none" xmlns="http://www.w3.org/2000/svg">
<path fill-rule="evenodd" clip-rule="evenodd" d="M14.5 0.75C22.0939 0.75 28.25 6.90608 28.25 14.5C28.25 22.0939 22.0939 28.25 14.5 28.25C6.90608 28.25 0.75 22.0939 0.75 14.5C0.75 6.90608 6.90608 0.75 14.5 0.75ZM15.6679 23.9571C15.2774 23.5666 15.2774 22.9334 15.6679 22.5429L17.7108 20.5H8.875C8.32272 20.5 7.875 20.0523 7.875 19.5C7.875 18.9477 8.32272 18.5 8.875 18.5H17.7108L15.6679 16.4571C15.2774 16.0666 15.2774 15.4334 15.6679 15.0429C16.0584 14.6524 16.6916 14.6524 17.0821 15.0429L20.8321 18.7929C21.2226 19.1834 21.2226 19.8166 20.8321 20.2071L17.0821 23.9571C16.6916 24.3476 16.0584 24.3476 15.6679 23.9571ZM13.3321 6.45711C13.7226 6.06658 13.7226 5.43342 13.3321 5.04289C12.9416 4.65237 12.3084 4.65237 11.9179 5.04289L8.16789 8.79289C7.77737 9.18342 7.77737 9.81658 8.16789 10.2071L11.9179 13.9571C12.3084 14.3476 12.9416 14.3476 13.3321 13.9571C13.7226 13.5666 13.7226 12.9334 13.3321 12.5429L11.2892 10.5H20.125C20.6773 10.5 21.125 10.0523 21.125 9.5C21.125 8.94772 20.6773 8.5 20.125 8.5H11.2892L13.3321 6.45711Z" fill="#8E8E93"/>
</svg>
