<svg width="29" height="29" viewBox="0 0 29 29" fill="none" xmlns="http://www.w3.org/2000/svg">
<path fill-rule="evenodd" clip-rule="evenodd" d="M0.75 14.5C0.75 6.90609 6.90609 0.75 14.5 0.75C22.0939 0.75 28.25 6.90609 28.25 14.5C28.25 22.0939 22.0939 28.25 14.5 28.25C6.90609 28.25 0.75 22.0939 0.75 14.5ZM14.5 7.25C15.0523 7.25 15.5 7.69772 15.5 8.25V13.5H20.75C21.3023 13.5 21.75 13.9477 21.75 14.5C21.75 15.0523 21.3023 15.5 20.75 15.5H15.5V20.75C15.5 21.3023 15.0523 21.75 14.5 21.75C13.9477 21.75 13.5 21.3023 13.5 20.75V15.5H8.25C7.69772 15.5 7.25 15.0523 7.25 14.5C7.25 13.9477 7.69772 13.5 8.25 13.5H13.5V8.25C13.5 7.69772 13.9477 7.25 14.5 7.25Z" fill="#8E8E93"/>
</svg>
