<svg width="29" height="29" viewBox="0 0 29 29" fill="none" xmlns="http://www.w3.org/2000/svg">
<path fill-rule="evenodd" clip-rule="evenodd" d="M14.5 28.25C22.0939 28.25 28.25 22.0939 28.25 14.5C28.25 6.90608 22.0939 0.75 14.5 0.75C6.90608 0.75 0.75 6.90608 0.75 14.5C0.75 22.0939 6.90608 28.25 14.5 28.25ZM18.7929 14.5821C19.1834 14.9726 19.8166 14.9726 20.2071 14.5821C20.5976 14.1916 20.5976 13.5584 20.2071 13.1679L15.2071 8.16789C14.8166 7.77737 14.1834 7.77737 13.7929 8.16789L8.79289 13.1679C8.40237 13.5584 8.40237 14.1916 8.79289 14.5821C9.18342 14.9726 9.81658 14.9726 10.2071 14.5821L13.5 11.2892V20.75C13.5 21.3023 13.9477 21.75 14.5 21.75C15.0523 21.75 15.5 21.3023 15.5 20.75V11.2892L18.7929 14.5821Z" fill="#8E8E93"/>
</svg>
