<svg width="31" height="29" viewBox="0 0 31 29" fill="none" xmlns="http://www.w3.org/2000/svg">
<path fill-rule="evenodd" clip-rule="evenodd" d="M30.3234 9.08755L27.7891 3.17432C27.4134 2.29757 27.2255 1.85919 26.9229 1.53739C26.6554 1.25298 26.3251 1.03516 25.9583 0.901372C25.5434 0.75 25.0664 0.75 24.1125 0.75H6.8877C5.93382 0.75 5.45688 0.75 5.0419 0.901372C4.67513 1.03516 4.3448 1.25298 4.07735 1.53739C3.77475 1.85919 3.58687 2.29757 3.21112 3.17432L0.67688 9.08755H30.3234ZM3.50011 16.5609C4.03743 16.7087 4.60328 16.7876 5.1876 16.7876C6.45393 16.7876 7.63464 16.4159 8.6251 15.7772C9.61557 16.4159 10.7963 16.7876 12.0626 16.7876C13.3289 16.7876 14.5096 16.4159 15.5001 15.7772C16.4906 16.4159 17.6713 16.7876 18.9376 16.7876C20.2039 16.7876 21.3846 16.4159 22.3751 15.7772C23.3656 16.4159 24.5463 16.7876 25.8126 16.7876C26.7733 16.7876 27.684 16.5743 28.5001 16.1926V24.25C28.5001 25.6501 28.5001 26.3502 28.2276 26.885C27.9879 27.3554 27.6055 27.7378 27.1351 27.9775C26.6003 28.25 25.9002 28.25 24.5001 28.25H7.50011C6.09998 28.25 5.39991 28.25 4.86513 27.9775C4.39472 27.7378 4.01227 27.3554 3.77259 26.885C3.50011 26.3502 3.50011 25.6501 3.50011 24.25V16.5609ZM5.50006 21.5C5.50006 20.7999 5.50006 20.4499 5.6363 20.1825C5.75614 19.9473 5.94737 19.7561 6.18257 19.6362C6.44996 19.5 6.79999 19.5 7.50006 19.5H12.2501C12.9501 19.5 13.3002 19.5 13.5675 19.6362C13.8028 19.7561 13.994 19.9473 14.1138 20.1825C14.2501 20.4499 14.2501 20.7999 14.2501 21.5V23.75C14.2501 24.4501 14.2501 24.8001 14.1138 25.0675C13.994 25.3027 13.8028 25.4939 13.5675 25.6138C13.3002 25.75 12.9501 25.75 12.2501 25.75H7.50006C6.79999 25.75 6.44996 25.75 6.18257 25.6138C5.94737 25.4939 5.75614 25.3027 5.6363 25.0675C5.50006 24.8001 5.50006 24.4501 5.50006 23.75V21.5ZM5.1875 15.125C2.70368 15.125 0.671062 13.1931 0.510254 10.75H30.4897C30.3289 13.1931 28.2963 15.125 25.8125 15.125C24.4543 15.125 23.2311 14.5474 22.375 13.6244C21.5189 14.5474 20.2957 15.125 18.9375 15.125C17.5793 15.125 16.3561 14.5474 15.5 13.6244C14.6439 14.5474 13.4207 15.125 12.0625 15.125C10.7043 15.125 9.48109 14.5474 8.625 13.6244C7.76891 14.5474 6.54566 15.125 5.1875 15.125Z" fill="#8E8E93"/>
</svg>
