<svg width="19" height="22" viewBox="0 0 19 22" fill="none" xmlns="http://www.w3.org/2000/svg">
<path fill-rule="evenodd" clip-rule="evenodd" d="M7.75002 1.5C7.75002 0.671573 8.42159 0 9.25002 0C10.0784 0 10.75 0.671573 10.75 1.5V1.88504C12.7053 2.25371 14.0876 3.34181 14.9991 4.70897C16.103 6.36489 16.5 8.39686 16.5 10L16.5 15.6893L18.2804 17.4697C18.4949 17.6842 18.559 18.0068 18.4429 18.287C18.3268 18.5673 18.0534 18.75 17.75 18.75H0.750022C0.446675 18.75 0.173198 18.5673 0.0571122 18.287C-0.0589733 18.0068 0.0051932 17.6842 0.219692 17.4697L2.00002 15.6893L2.00002 10C2.00002 8.39686 2.39704 6.36489 3.50098 4.70897C4.41243 3.3418 5.79474 2.25371 7.75002 1.88504V1.5ZM4.74906 5.54103C3.853 6.88511 3.50002 8.60314 3.50002 10V15.6702L3.5001 15.6956C3.50053 15.7863 3.50123 15.9358 3.46548 16.0847C3.43486 16.2122 3.38436 16.3342 3.31582 16.446C3.23579 16.5766 3.12905 16.6824 3.06427 16.7465L3.04604 16.7646L2.56068 17.25H15.9394L15.454 16.7646L15.4358 16.7465C15.371 16.6824 15.2643 16.5766 15.1842 16.446C15.1157 16.3342 15.0652 16.2122 15.0346 16.0847C14.9988 15.9358 14.9995 15.7863 14.9999 15.6956L15 15.6702V10C15 8.60314 14.647 6.88511 13.751 5.54103C12.8801 4.23464 11.4817 3.25 9.25002 3.25C7.01833 3.25 5.61998 4.23464 4.74906 5.54103Z" fill="black"/>
<path d="M9.25021 22C7.944 22 6.83276 21.1652 6.42092 20H12.0795C11.6677 21.1652 10.5564 22 9.25021 22Z" fill="black"/>
</svg>
