<svg width="314" height="247" viewBox="0 0 314 247" fill="none" xmlns="http://www.w3.org/2000/svg">
<path d="M194.027 47.4533C206.067 53.0933 217.427 47.6267 229.853 51.6533C234.533 52.92 236.96 52.72 241.32 50.7467C247.867 55.5733 255 55.8 262.653 57.6267C270.067 57.2667 276.707 59.5467 283.64 61.7867C283.32 65.28 282.013 68.2933 280.507 71.4133C280.947 74 281.2 76.3867 280.4 78.96C278.24 85.9067 279.627 92.8267 278.333 100.053C277.613 110.84 277.933 122.84 275.373 133.6C273.8 142.693 273.8 152.147 274.213 161.347C274.453 167.733 273.32 173.747 273.973 180.133C274.413 184.787 274.24 189.507 273.853 194.147C266.6 194.973 260.36 191.253 253.4 193.107C244.587 195.013 235.853 195.027 226.96 195.707C216.333 197.28 205.867 199.227 195.08 199.413C190.693 199.947 187.093 197.547 182.813 197.68C174.653 197.88 166.907 200.44 158.733 200.947C150.707 202.587 142.773 201.387 134.667 202.173C127.8 202.867 121.453 200.52 114.613 200.827C108.987 200.973 104.36 203.227 98.6533 201.707C87.8 198.987 76.8267 201.96 65.7067 199.653C59.08 198.373 50.5333 199.08 45.2933 194.6C42.12 192.733 41.9333 189.08 40.56 185.907C38.3733 180.467 36.2667 175.2 35.7333 169.293C34.5867 156.933 30.8533 142.68 33.64 130.427C34.5067 125.44 33.4667 120.547 34.1067 115.413C35.0933 108.053 34.0533 100.813 34.2533 93.3333C34 85.4 34.7867 77.32 33.7067 69.48C34.5467 68.76 35.3867 68.0533 36.24 67.3467C38.76 67.7467 41.4133 68.5333 43.9733 68.3733C48.16 67.4133 51.4667 65.1067 55.92 65.0133C65.6 64.8 74.7467 62.4133 84.12 60.2667C94.2267 57.4933 104.387 57.1467 114.76 56.2533C115.747 54.4133 116.733 52.5733 117.76 50.7467C125.947 51.68 134.027 51.7067 142.173 50.3867C148.4 49.2933 154.333 50.6667 160.573 50.2933C168.413 50.1333 177.693 51.12 185.027 48.0667C188 47.3333 190.987 47.32 194.027 47.4533Z" fill="#D7E5FA"/>
<path d="M148 42.1867L148.227 41.9067L148.36 44.8267C150.813 45.0133 153.267 44.9733 155.707 45.1467C159.227 47.12 162.827 45.7467 166.667 45.8C172.96 45.5333 179.067 46.9333 185.347 46.4533C189.947 46.28 194.253 45.44 198.6 47.1333C204.56 47.3867 211.707 46.1733 217.32 48.36C223.507 48.8133 229.787 48.7733 236 48.8267C240.973 48.0267 246.04 47.6267 250.027 51.3067C251.427 53.1333 254.16 52.6533 256.227 53.68C259.853 54.0267 262.68 52.8 265.707 55.4933C269.32 56.76 272.68 58.52 276.347 59.64C276.453 62.1867 278.187 64.16 278.2 66.64C278.093 69.8533 280.933 72.9333 282.013 75.84C282.08 79.1467 281.747 82.48 282.013 85.7867C283.04 86.4933 284.053 87.2133 285.04 87.96C284.027 89.2133 283.027 90.5067 282.067 91.8C282.147 93.9067 282.187 96.0267 282.24 98.1333C281.773 98.1467 281.307 98.1733 280.84 98.2C280.987 100.707 280.613 102.947 281.88 105.24C282.16 107.587 282.027 109.773 283.173 111.92C283.4 116.773 283.987 122.253 282.333 126.88C281.76 134.653 283.027 141.6 281 149.293C281.253 154.293 280.453 159.267 281.013 164.227C278.627 168.96 280.387 174.093 278.56 178.947C278.04 181.933 278.453 184.653 277.253 187.493C276.333 189.587 277.013 191.293 277.773 193.267C275.653 196.613 271.68 198.533 269.307 201.92C268.373 201.573 267.453 201.213 266.533 200.84L266.267 203.973C264.667 203.987 263.36 203.44 262.373 202.347C259.867 202.293 257.64 201.947 255.507 203.547C253.387 203.587 251.827 201.36 253.36 199.627C254.147 196.92 253.24 194.627 255.587 192.467C257.533 191.867 259.88 192.627 261.693 191.853C264.107 190.427 267.373 191.08 270.147 190.947C266.547 189.72 267.013 187.2 267.573 184C268.827 180.773 267.96 177.64 268.613 174.373C272.533 171.973 270.147 168.827 272.267 165.08C272.693 159.333 272.587 153.507 272.027 147.773C273.453 146.92 274.067 146.053 274.68 144.52C276.2 138.36 273.133 133.987 273.813 128C274.48 122.213 274.16 116.453 273.733 110.667C273.587 106.56 274.427 101.653 273.387 97.64C272.2 95.3733 272.653 93.1067 272.213 90.68C271.2 87.76 271.36 84.96 271.267 81.92C268.88 78.64 267.12 75.0267 264.333 72.0133C264.533 71.0267 264.96 70.1067 265.64 69.2533C262.693 66.6267 259 65.44 256.36 62.6133C253.387 62.1333 250.547 62.5867 247.733 61.16C243.6 60.9333 239.72 61.1867 235.933 59.2C233.813 57.9333 231.653 58.2 229.32 57.8133C226.12 56.2933 221.947 57.2933 218.693 56.04C212.667 53.6267 207.84 56.5867 201.347 55.4267C196.253 54.48 191.36 56.96 186.8 53.8667C183.48 53.1333 180.187 54.5867 177.213 53.2267C171.867 51.88 165.507 53.1733 160.013 52.5067C156.333 52.04 152.76 52.16 149.04 52.2667C146.2 53.9067 143.147 54.6 140.227 52.6C135.547 52.1467 130.187 52.88 125.333 52.64C121.773 52.8267 118.893 51.48 115.693 53.4533C109 53.64 101.053 54.7867 94.6667 52.6133C91.8 54.9067 88.5733 53.88 85.1333 53.9467C82.12 56.16 79.0667 54.0267 75.9733 55.6C72.4 57.6533 67.56 55.5867 63.7333 57.6533C58.2267 57.9333 53.4933 60.16 48.0933 61.0533C44.7333 62.7333 43.4133 63.8533 39.36 63.2533C38.9733 66.3733 40.6133 69 40.5467 72.12C42.8133 74.6667 41.16 76.9333 41.68 80C42.3467 87.5733 41.6667 95.1067 41.96 102.693C42.2267 105.68 40.24 107.72 41.1867 110.68C42.1067 114.093 41.56 117.827 41.92 121.347C42.3733 124.947 39.0667 126.627 41.4667 130.173C41.9733 132.64 42.28 136.387 40.84 138.6C39.8133 144.88 42.1067 152.773 39.36 158.6C40.3467 162.613 40.7067 166.227 40.2667 170.4C37.88 174.24 41.1067 177.96 37.84 181.373C38.2933 183.173 39.12 184.72 39.0933 186.627C38.9733 190.933 41.24 193.84 40.4267 198.32C44.5867 198.373 48.6933 197.573 52.8667 197.707C52.36 196.107 47.4533 196.16 45.8533 195.347C45.88 194.373 45.8933 193.387 45.9067 192.413C48.8533 192.027 51.5867 194.32 54.6533 194.16C62.8133 193.96 72.1467 195.293 80 193.107C89.2933 194.187 98.4667 193.267 107.8 193.893C111.027 193.267 113.827 192.533 117.16 193.413C124.293 194.027 131.64 193.693 138.813 193.947C141.747 193.573 140.84 195.92 142.16 196.147L143.227 194.907C147.48 194.653 151.773 194.947 156.04 194.827C160.36 193.653 165.013 194.16 169.52 193.84C173.347 195.227 177.307 194.973 181.333 195.24C184.693 195.173 188.44 195.653 191.693 194.773C193.933 193.96 196.293 193.587 198.667 193.72C208.947 194.307 219.067 193.493 229.36 193.653C233.093 192.227 237.2 192.52 240.013 195.56C241.587 194.373 243.067 193.88 244.427 194.067C244.12 197.12 247.067 197.907 249.533 198.107C250.267 199.413 251.187 200.6 252.293 201.68C252.587 202.88 252.733 204.08 252.733 205.293C251.4 206.347 249.613 206.76 247.373 206.507C246.88 205.933 246.36 205.373 245.84 204.813C246.12 205.707 246.347 206.613 246.533 207.533C242.027 207.48 237.28 209.267 232.96 207.44V207.333C236.587 207.573 241.893 207.96 244.787 205.36C240.027 201.32 237.147 205.133 232 204.453C228.893 203.933 225.467 205.16 222.627 203.947C217.693 202.293 213.267 203.213 208.253 203.053C210.267 206.253 216.053 203.053 218.6 205.827C219.68 206.36 223.907 205.507 223.693 207.387C220.4 207.2 217.853 208.933 214.68 208.027C212.36 207.36 209.68 207.84 207.48 207.027C204.667 204.493 200.76 206.973 197.32 204.933C192.64 206.453 188 205.32 183.267 206.027C180.32 208.88 176.413 206.427 173.387 208.76C171.853 208.387 170.28 207.333 168.72 207.627C163.24 208.68 158.813 205.707 153.293 205.96C151.893 206.227 151.08 205.44 150.84 203.64C147.64 202.453 143.32 203.52 140.013 203.547C136.44 202.88 132.853 202.987 129.28 203.573C124.507 204.747 124.427 208.68 118.987 208.107C114.533 207.893 112.173 203.68 108.453 206.853C103.467 207.72 98.96 206.36 94.5067 204.173C84.9333 207.48 75.0933 203.707 65.32 204.68C62.4267 205.147 61.32 203.28 58.8133 202.667C55.56 205.467 51.96 204.6 47.9733 204.573C44.5733 204.533 41.9333 202.653 38.48 203.507C36.68 203.013 35.7467 201.093 34.12 200.16C33.5867 198.133 34.2667 195.96 34.0933 193.867C31.2 189.48 35 184.72 34.0133 179.507C32.7333 179.427 31.4667 179.347 30.1867 179.267C29.84 174.627 30.2667 169.987 29.8933 165.333C29.56 159.84 32.24 155.853 30.4 150.68C30.2933 146.24 30.2133 141.76 30.3733 137.307C32.9067 128.32 28.48 120.2 30.8667 110.68C32.2 104.787 31.4667 98.28 31.8533 92.32C34.4667 87.36 32.36 80.12 32.7867 74.6133C33.5867 73.04 34.12 71.4133 34.3733 69.72C32.1333 69.6667 29.1733 71.0267 27.76 68.6C27.44 65.8533 27.32 62.5333 27.8 59.8C31.4533 59.3067 34.5467 57.6933 37.9067 56.36C38.52 55.3733 38.68 54.2267 38.3733 52.9067C45.2933 54.0667 49.84 50.4667 56.2133 48.96C61.56 49.1067 66.0133 48.4533 70.96 46.44C74.9067 45.7867 79.12 46.3467 83.12 46.36C84.2933 48.04 85.1867 50.8933 87.72 50.48C91.4533 50.7467 93.8133 48.56 97.4 48.5333C99.7867 46.8933 102.307 47.76 104.867 46.8267C108.013 45.84 111.6 46.6933 114.68 45.7333C116.747 44.52 118.947 44.92 121.333 44.7467C128.44 44.8533 135.653 44.9067 142.773 44.68C144.56 44.4533 147.08 43.8933 148 42.1867Z" fill="#030303"/>
<path d="M152.12 70.5467C155.413 69.0667 158.387 71.0533 161.267 72.44C166.573 71.16 171.44 76.16 171.44 81.3333C172.44 85.7067 169.347 87.9467 168.92 91.9867C168.64 94.9067 168.4 97.3467 166.213 99.5333C164.107 101.373 161.68 103 159.413 104.667C154.173 105.12 149.453 105.24 145.173 101.76C144.6 98.24 141.973 96.9467 139.56 94.7733C138.467 92.5067 139.213 89.12 139.04 86.5867C140.387 84.3067 141.533 82.1733 142.32 79.64C144.933 76.12 148.187 72.5733 152.12 70.5467Z" fill="#030303"/>
<path d="M160.547 75.5733C163.36 77.6 165.88 79.08 167.04 82.5867C166.733 85.2933 167.253 88.04 166.907 90.7067C162.747 93.9333 161.427 98.96 156.187 100.053C152.653 101.32 150.213 99.8267 147.4 97.8667C146.027 93.8533 146.373 88.88 146.24 84.6267C147.187 80.4667 150.227 78.8933 153.387 76.5467C154.467 77.48 155.613 78.0533 156.813 78.2933C158.173 75.9867 157.467 74.9067 160.547 75.5733Z" fill="#F1F6FE"/>
<path d="M187.787 84.64C189.973 84.6267 192.053 84.5867 194.133 85.3733C197.587 86.64 200.64 85.4267 204.173 85.8133C207.227 87.5867 209.533 90.6933 212.027 93.1733C215.347 97 214.08 100.773 214.36 105.373C214.787 108.387 212.547 110.067 212.253 113.027C209.28 117.493 206.587 121.6 201.16 123.413C194.12 122.787 187.573 124.613 180.72 121.853C179.68 119.6 175.76 117.213 176.64 114.68C177.733 111.2 175.4 108.64 177.36 105.373C179.133 102.213 177.333 97.72 177.573 94.1333C179.267 92.6 180.307 91.2933 181.067 89.1067C184.027 88.0267 185.8 87.1733 187.787 84.64Z" fill="#030303"/>
<path d="M187.88 90.2C190.613 90.08 193.333 89.7733 196.067 89.5467C199.893 90.88 204.12 92.7333 207.28 95.3333C208.187 96.2933 210.347 97.32 210.133 98.8C210.013 101.827 210.267 104.8 210.267 107.813C209.667 110 208.44 112.04 207.36 114.013C205.653 117.013 202.44 117.853 199.453 119.413C195.773 121.36 190.6 120.413 186.653 119.813C183.147 119.293 179.587 117.453 179.853 113.373C180.04 104.84 181.72 96.5067 187.88 90.2Z" fill="#F1F6FE"/>
<path d="M107.347 100.733C110.453 100.267 112.827 98.5333 115.84 99.9733C119.227 100.907 122.613 100.96 124.893 104.213C126.28 106.467 127.973 108.227 129.987 109.907C130.107 113.947 129.693 117.973 129.8 122.013C127.027 124.213 126.987 127.56 124.627 129.84C120.387 132.2 114.533 131.693 109.827 131.44C106.053 128.48 104.2 124.88 102.027 120.733C101.6 117.44 102.067 113.987 101.827 110.653C102.267 106.907 104.6 103.253 107.347 100.733Z" fill="#030303"/>
<path d="M116.027 104.853C118.92 104.64 121.707 106.293 123.307 108.64C125.307 110.867 124.6 113.333 125.573 116.093C126.547 118.947 124.347 120.573 124.627 123.507C122.933 124.813 121.373 126.307 119.64 127.56C116.693 127.493 112.147 128.44 110 125.987C108.573 124.027 106.907 122.733 107.12 120.067C107.147 114.987 106.413 110.093 110 105.987C111.48 104.227 113.947 105.067 116.027 104.853Z" fill="#F1F6FE"/>
<path d="M152.347 117.907C155.747 119.04 157.04 122.387 160.627 123.24C163.547 124.013 165.747 126.013 168.413 127.453C172.2 131.893 178.467 132.827 182.12 137.88C184.787 140.467 186.64 142.947 188.64 146.04C190.56 147.893 189.347 149.773 188.907 151.96C188.72 154.093 190.093 155.72 190.973 157.547C191.133 159.467 191.12 161.36 191.067 163.293C188.853 165.107 187.373 167.427 185.56 169.587C182.72 172.6 179.173 172.893 175.72 175.12C172.333 174.213 168.827 177.413 165.36 177.613C159.68 177.547 153.907 178.147 148.253 177.8C145.533 176.04 142.747 177.213 139.973 175.813C135.653 174.88 131.693 173.293 129.147 169.467C127.893 167.227 125.813 166.8 123.773 165.547C122.613 162.387 123.093 158.573 123.333 155.267C126.373 149.893 130.053 145.187 133.4 140.027C137.307 135.933 138.84 130.733 143.027 126.907C146.213 124.053 148.8 120.307 152.347 117.907Z" fill="#030303"/>
<path d="M151.76 125.6C156.16 125.547 158.48 128.48 162.667 129.227C163.307 132.907 165.307 133.48 168.493 134.507C171.507 136.627 173.84 139.613 176.787 141.88C180.747 146.267 184.08 151.173 183.053 157.373C180.147 160.747 178.987 164.613 175.027 167.027C171.6 169.547 168.187 168.893 164.24 169.053C160.56 171.253 154.8 170.133 150.72 169.48L150.84 168.173C153.493 167.52 156.333 167.653 159.04 167.093C159.453 165.693 159.693 164.28 159.773 162.867L158.36 162C150.787 165.36 140.867 164.52 132.693 164.333C127.333 160.84 130.293 154.36 132.88 150.093C133.92 149.96 134.947 149.84 135.987 149.76C138.053 148.16 138.587 146 140.04 144.053C145.64 139.8 147.68 131.227 151.76 125.6Z" fill="#F1F6FE"/>
<path d="M188.76 201.88C189.453 204.48 187.88 205.067 185.787 203.573C181.533 201.68 187.04 199.667 188.76 201.88Z" fill="#F1F6FE"/>
</svg>
