<svg width="22" height="22" viewBox="0 0 22 22" fill="none" xmlns="http://www.w3.org/2000/svg">
<path d="M10.0316 22C9.75789 22 9.52632 21.9228 9.33684 21.7684C9.14737 21.6211 9.02105 21.4105 8.95789 21.1368L8.41053 18.8211C8.20702 18.7509 8.00702 18.6772 7.81053 18.6C7.61404 18.5228 7.42807 18.4421 7.25263 18.3579L5.23158 19.6C5 19.7404 4.7614 19.8 4.51579 19.7789C4.27719 19.7579 4.06316 19.6526 3.87368 19.4632L2.52632 18.1158C2.33684 17.9263 2.22807 17.7053 2.2 17.4526C2.17895 17.2 2.24561 16.9614 2.4 16.7368L3.63158 14.7263C3.54737 14.5439 3.46667 14.3579 3.38947 14.1684C3.31228 13.9789 3.24561 13.7895 3.18947 13.6L0.852632 13.0421C0.578947 12.986 0.368421 12.8632 0.221053 12.6737C0.0736842 12.4842 0 12.2526 0 11.9789V10.0737C0 9.80702 0.0736842 9.57895 0.221053 9.38947C0.368421 9.2 0.578947 9.07719 0.852632 9.02105L3.16842 8.46316C3.23158 8.24561 3.30175 8.0421 3.37895 7.85263C3.46316 7.66316 3.54035 7.48421 3.61053 7.31579L2.37895 5.27368C2.22456 5.04912 2.15789 4.81754 2.17895 4.57895C2.2 4.33333 2.30877 4.11579 2.50526 3.92632L3.87368 2.56842C4.07018 2.38596 4.2807 2.2807 4.50526 2.25263C4.73684 2.22456 4.96842 2.27719 5.2 2.41053L7.24211 3.67368C7.41754 3.58246 7.60351 3.49825 7.8 3.42105C8.00351 3.33684 8.20702 3.25965 8.41053 3.18947L8.95789 0.863158C9.02105 0.596491 9.14737 0.385965 9.33684 0.231579C9.52632 0.077193 9.75789 0 10.0316 0H11.9684C12.2421 0 12.4737 0.077193 12.6632 0.231579C12.8526 0.385965 12.9754 0.596491 13.0316 0.863158L13.5789 3.21053C13.7965 3.2807 14 3.35439 14.1895 3.43158C14.386 3.50877 14.5684 3.59298 14.7368 3.68421L16.8 2.41053C17.0316 2.27719 17.2596 2.22807 17.4842 2.26316C17.7088 2.29123 17.9193 2.39298 18.1158 2.56842L19.4947 3.92632C19.6912 4.11579 19.7965 4.33333 19.8105 4.57895C19.8316 4.81754 19.7684 5.04912 19.6211 5.27368L18.3789 7.31579C18.4491 7.48421 18.5228 7.66316 18.6 7.85263C18.6842 8.0421 18.7614 8.24561 18.8316 8.46316L21.1474 9.02105C21.414 9.07719 21.6211 9.2 21.7684 9.38947C21.9228 9.57895 22 9.80702 22 10.0737V11.9789C22 12.2526 21.9228 12.4842 21.7684 12.6737C21.6211 12.8632 21.414 12.986 21.1474 13.0421L18.8105 13.6C18.7474 13.7895 18.6772 13.9789 18.6 14.1684C18.5298 14.3579 18.4491 14.5439 18.3579 14.7263L19.6 16.7368C19.7544 16.9614 19.8175 17.2 19.7895 17.4526C19.7684 17.7053 19.6632 17.9263 19.4737 18.1158L18.1158 19.4632C17.9263 19.6526 17.7088 19.7579 17.4632 19.7789C17.2246 19.8 16.993 19.7404 16.7684 19.6L14.7368 18.3579C14.5614 18.4421 14.3754 18.5228 14.1789 18.6C13.9825 18.6772 13.7825 18.7509 13.5789 18.8211L13.0316 21.1368C12.9754 21.4105 12.8526 21.6211 12.6632 21.7684C12.4737 21.9228 12.2421 22 11.9684 22H10.0316ZM11 14.7158C11.6807 14.7158 12.3018 14.5474 12.8632 14.2105C13.4316 13.8737 13.8807 13.4246 14.2105 12.8632C14.5474 12.2947 14.7158 11.6702 14.7158 10.9895C14.7158 10.3088 14.5474 9.69123 14.2105 9.13684C13.8807 8.57544 13.4316 8.12632 12.8632 7.78947C12.3018 7.45263 11.6807 7.28421 11 7.28421C10.3193 7.28421 9.69825 7.45263 9.13684 7.78947C8.57544 8.12632 8.12632 8.57544 7.78947 9.13684C7.45263 9.69123 7.28421 10.3088 7.28421 10.9895C7.28421 11.6702 7.44912 12.2947 7.77895 12.8632C8.11579 13.4246 8.56491 13.8737 9.12632 14.2105C9.69474 14.5474 10.3193 14.7158 11 14.7158Z" fill="black"/>
</svg>
