<svg width="55" height="55" viewBox="0 0 55 55" fill="none" xmlns="http://www.w3.org/2000/svg">
<path fill-rule="evenodd" clip-rule="evenodd" d="M27.5081 4.41781C14.8038 4.41781 4.50484 14.7167 4.50484 27.4211C4.50484 40.1255 14.8038 50.4244 27.5081 50.4244C40.2125 50.4244 50.5114 40.1255 50.5114 27.4211C50.5114 14.7167 40.2125 4.41781 27.5081 4.41781ZM0.896484 27.4211C0.896484 12.7239 12.8109 0.809448 27.5081 0.809448C42.2053 0.809448 54.1198 12.7239 54.1198 27.4211C54.1198 42.1183 42.2053 54.0328 27.5081 54.0328C12.8109 54.0328 0.896484 42.1183 0.896484 27.4211ZM27.5081 15.4684C28.5046 15.4684 29.3123 16.2762 29.3123 17.2726V25.6169H37.6566C38.6531 25.6169 39.4608 26.4247 39.4608 27.4211C39.4608 28.4175 38.6531 29.2253 37.6566 29.2253H29.3123V37.5696C29.3123 38.566 28.5046 39.3738 27.5081 39.3738C26.5117 39.3738 25.704 38.566 25.704 37.5696V29.2253H17.3596C16.3632 29.2253 15.5554 28.4175 15.5554 27.4211C15.5554 26.4247 16.3632 25.6169 17.3596 25.6169H25.704V17.2726C25.704 16.2762 26.5117 15.4684 27.5081 15.4684Z" fill="black"/>
</svg>
