<svg width="31" height="30" viewBox="0 0 31 30" fill="none" xmlns="http://www.w3.org/2000/svg">
<path fill-rule="evenodd" clip-rule="evenodd" d="M0.964277 15C0.964277 22.8109 7.47214 29.1429 15.5 29.1429C23.5278 29.1429 30.0357 22.8109 30.0357 15C30.0357 7.18915 23.5278 0.857178 15.5 0.857178C7.47214 0.857178 0.964277 7.18915 0.964277 15ZM25.4975 16.2013C25.0847 15.7996 24.4153 15.7996 24.0025 16.2013L21.8428 18.3026V9.21432C21.8428 8.64626 21.3695 8.18575 20.7857 8.18575C20.2019 8.18575 19.7286 8.64626 19.7286 9.21432V18.3026L17.5689 16.2013C17.1561 15.7996 16.4867 15.7996 16.0739 16.2013C15.6611 16.603 15.6611 17.2542 16.0739 17.6559L20.0382 21.5131C20.451 21.9147 21.1204 21.9147 21.5332 21.5131L25.4975 17.6559C25.9103 17.2542 25.9103 16.603 25.4975 16.2013ZM6.99751 13.7988C6.58466 14.2005 5.91532 14.2005 5.50248 13.7988C5.08964 13.3971 5.08964 12.7458 5.50248 12.3442L9.46676 8.48701C9.8796 8.08533 10.549 8.08533 10.9618 8.48701L14.9261 12.3442C15.3389 12.7458 15.3389 13.3971 14.9261 13.7988C14.5132 14.2005 13.8439 14.2005 13.4311 13.7988L11.2714 11.6975V20.7857C11.2714 21.3538 10.7981 21.8143 10.2143 21.8143C9.63043 21.8143 9.15714 21.3538 9.15714 20.7857V11.6975L6.99751 13.7988Z" fill="#C2E0FF"/>
</svg>
